<?xml version="1.0" encoding="utf-8"?>
<!-- Generator: Adobe Illustrator 26.4.1, SVG Export Plug-In . SVG Version: 6.00 Build 0)  -->
<svg version="1.1" id="Layer_2" xmlns="http://www.w3.org/2000/svg" xmlns:xlink="http://www.w3.org/1999/xlink" x="0px" y="0px"
	 viewBox="0 0 60 60" style="enable-background:new 0 0 60 60;" xml:space="preserve">
<style type="text/css">
	.st0{clip-path:url(#SVGID_00000011017799235793074750000015425813471640523454_);}
	.st1{fill:#E5000E;}
	.st2{fill:#FFD500;}
	.st3{fill:#E41A24;stroke:#7F2210;stroke-width:4.788200e-02;}
	.st4{fill:#E5AD00;stroke:#7F2210;stroke-width:4.788200e-02;}
	.st5{fill:#FFFFFF;stroke:#7F2210;stroke-width:4.788200e-02;}
	.st6{fill:#3861AB;stroke:#7F2210;stroke-width:4.788200e-02;}
	.st7{fill:#008E6E;stroke:#7F2210;stroke-width:4.788200e-02;}
	.st8{fill:none;stroke:#7F2210;stroke-width:4.788200e-02;stroke-linecap:round;stroke-linejoin:round;}
	.st9{fill:none;stroke:#7F2210;stroke-width:1.104900e-02;}
	.st10{fill:none;stroke:#7F2210;stroke-width:1.718900e-02;}
	.st11{fill:none;stroke:#7F2210;stroke-width:2.209900e-02;}
	.st12{fill:none;stroke:#7F2210;stroke-width:2.823900e-02;}
	.st13{fill:none;stroke:#7F2210;stroke-width:3.437700e-02;}
	.st14{fill:none;stroke:#7F2210;stroke-width:4.051700e-02;}
	.st15{fill:none;stroke:#7F2210;stroke-width:4.542800e-02;}
	.st16{fill:none;stroke:#7F2210;stroke-width:5.156600e-02;}
	.st17{fill:none;stroke:#7F2210;stroke-width:5.647700e-02;}
	.st18{fill:none;stroke:#7F2210;stroke-width:6.261700e-02;}
	.st19{fill:none;stroke:#7F2210;stroke-width:6.875500e-02;}
	.st20{fill:none;stroke:#7F2210;stroke-width:7.366500e-02;}
	.st21{fill:none;stroke:#7F2210;stroke-width:7.734900e-02;}
	.st22{fill:none;stroke:#7F2210;stroke-width:8.348900e-02;}
	.st23{fill:none;stroke:#7F2210;stroke-width:8.962700e-02;}
	.st24{fill:none;stroke:#7F2210;stroke-width:9.453800e-02;}
	.st25{fill:none;stroke:#7F2210;stroke-width:0.1117;}
	.st26{fill:none;stroke:#7F2210;stroke-width:6.138000e-03;}
	.st27{fill:#E41A24;stroke:#7F2210;stroke-width:3.192300e-02;}
	.st28{fill:#E5AD00;}
	.st29{fill:#E5AD00;stroke:#7F2210;stroke-width:3.192300e-02;}
	.st30{fill:#FFFFFF;stroke:#7F2210;stroke-width:3.192300e-02;}
	.st31{fill:#008E6E;stroke:#7F2210;stroke-width:3.192300e-02;}
	.st32{fill:#7F2210;}
	.st33{fill:#FFFFFF;stroke:#7F2210;stroke-width:2.578300e-02;}
	.st34{fill:none;stroke:#7F2210;stroke-width:3.192300e-02;stroke-linecap:round;}
	.st35{fill:none;stroke:#7F2210;stroke-width:3.192300e-02;}
	.st36{fill:#E5AD00;stroke:#7F2210;stroke-width:3.683400e-02;}
	.st37{fill:#E5AD00;stroke:#7F2210;stroke-width:3.192300e-02;stroke-linejoin:round;}
	.st38{fill:#008E6E;}
	.st39{fill:#E41A24;stroke:#7F2210;stroke-width:3.192300e-02;stroke-linejoin:round;}
	.st40{fill:none;stroke:#7F2210;stroke-width:4.788200e-02;}
	.st41{fill:#FED692;stroke:#7F2210;stroke-width:6.384400e-02;}
	.st42{fill:#008E6E;stroke:#7F2210;stroke-width:6.384400e-02;}
	.st43{fill:#E41A24;stroke:#7F2210;stroke-width:6.384400e-02;}
	.st44{fill:#E5AD00;stroke:#7F2210;stroke-width:6.384400e-02;}
	.st45{fill:#E5AD00;stroke:#7F2210;stroke-width:5.647700e-02;}
	.st46{fill:#3861AB;}
	.st47{fill:#E086B6;stroke:#7F2210;stroke-width:4.788200e-02;stroke-miterlimit:10;}
	.st48{fill:#7F2210;stroke:#7F2210;stroke-width:3.192300e-02;}
	.st49{fill:#E5AD00;stroke:#7F2210;stroke-width:3.192300e-02;stroke-linecap:round;stroke-linejoin:round;}
</style>
<g>
	<defs>
		<ellipse id="SVGID_1_" transform="matrix(0.3827 -0.9239 0.9239 0.3827 -9.1969 46.2359)" cx="30" cy="30" rx="30" ry="30"/>
	</defs>
	<clipPath id="SVGID_00000063610987785262531890000011641575190083880320_">
		<use xlink:href="#SVGID_1_"  style="overflow:visible;"/>
	</clipPath>
	<g style="clip-path:url(#SVGID_00000063610987785262531890000011641575190083880320_);">
		<g>
			<g>
				<g>
					<rect x="-11.7" y="0" class="st1" width="90" height="60"/>
				</g>
			</g>
			<rect x="-11.7" y="15" class="st2" width="90" height="30"/>
		</g>
		<g>
			<path class="st3" d="M24.3,23.5L24,24.1l-0.4,0.7l-1.4,0.9h-7.9l-1-0.8l-0.8-0.8l-0.1-0.5l-0.2-0.2c0.5-0.5,1.4-0.9,2.4-0.9
				c1.7,0.1,1.3-0.6,3.6-0.6c2.3,0,1.9,0.7,3.6,0.6C22.9,22.5,23.8,23,24.3,23.5z"/>
			<path class="st4" d="M18.3,25.3c-1.6,0-3,0.2-4.1,0.5c-0.1,0-0.1,0-0.2-0.1c0-0.1,0-0.1,0.1-0.2c1-0.3,2.5-0.5,4.2-0.5
				c1.6,0,3.1,0.2,4.2,0.5c0.1,0,0.1,0.1,0.1,0.2c0,0.1-0.1,0.1-0.2,0.1C21.4,25.5,19.9,25.3,18.3,25.3"/>
			<path class="st4" d="M18.3,24l0.1,0c0,0.1,0,0.1,0,0.2c0,0.3,0.3,0.6,0.6,0.6c0.3,0,0.5-0.2,0.6-0.4c0,0,0.1-0.2,0.1-0.2
				c0,0,0,0.2,0,0.2c0,0.3,0.3,0.5,0.6,0.5c0.3,0,0.6-0.2,0.6-0.6c0,0,0,0,0-0.1l0.2-0.2l0.1,0.2c0,0.1-0.1,0.2-0.1,0.2
				c0,0.3,0.3,0.5,0.6,0.5c0.2,0,0.4-0.1,0.5-0.2l0.1-0.1l0,0.2c0,0.2,0.1,0.3,0.3,0.4c0,0,0.2,0,0.5-0.2c0.3-0.2,0.4-0.4,0.4-0.4
				l0,0.2c0,0-0.2,0.4-0.5,0.5c-0.1,0.1-0.3,0.2-0.5,0.1c-0.2,0-0.3-0.2-0.4-0.3c-0.1,0.1-0.3,0.1-0.4,0.1c-0.3,0-0.6-0.2-0.8-0.5
				c-0.2,0.2-0.4,0.3-0.6,0.3c-0.3,0-0.5-0.1-0.7-0.3C19.5,25,19.3,25,19,25c-0.3,0-0.6-0.1-0.7-0.4c-0.1,0.2-0.4,0.4-0.7,0.4
				c-0.2,0-0.4-0.1-0.6-0.2c-0.2,0.2-0.4,0.3-0.7,0.3c-0.3,0-0.5-0.1-0.6-0.3c-0.1,0.3-0.4,0.5-0.8,0.5c-0.2,0-0.3,0-0.4-0.1
				c-0.1,0.2-0.2,0.3-0.4,0.3c-0.2,0-0.4-0.1-0.5-0.1c-0.2-0.1-0.5-0.5-0.5-0.5l0-0.2c0,0,0.2,0.2,0.4,0.4c0.3,0.2,0.5,0.2,0.5,0.2
				c0.2,0,0.3-0.2,0.3-0.4v-0.2l0.1,0.1c0.1,0.1,0.3,0.2,0.5,0.2c0.3,0,0.6-0.2,0.6-0.5c0-0.1,0-0.2-0.1-0.2l0.1-0.2l0.2,0.2
				c0,0,0,0,0,0.1c0,0.3,0.3,0.6,0.6,0.6c0.3,0,0.5-0.2,0.6-0.5c0,0,0-0.2,0-0.2c0,0,0.1,0.2,0.1,0.2c0.1,0.2,0.3,0.4,0.6,0.4
				c0.3,0,0.6-0.2,0.6-0.6c0-0.1,0-0.1,0-0.2L18.3,24"/>
			<path class="st4" d="M21.3,23l-0.2,0.1l-0.2-0.4c0.3-0.2,0.5-0.5,0.5-0.8c0,0,0-0.1,0-0.1c0-0.5-0.7-0.9-1.5-0.9
				c-0.4,0-0.8,0.1-1.1,0.3c0-0.1,0-0.1,0-0.2c0.3-0.2,0.7-0.3,1.1-0.3c0.9,0,1.6,0.5,1.7,1.1c0,0,0,0.1,0,0.1
				c0,0.3-0.2,0.6-0.4,0.8L21.3,23z"/>
			<path class="st4" d="M15.5,22.8c-0.2-0.2-0.4-0.5-0.4-0.8c0,0,0-0.1,0-0.1c0-0.6,0.8-1.1,1.7-1.1c0.4,0,0.8,0.1,1.1,0.3
				c0,0.1,0,0.1,0,0.2c-0.3-0.2-0.6-0.3-1.1-0.3c-0.8,0-1.4,0.4-1.5,0.9c0,0,0,0.1,0,0.1c0,0.3,0.2,0.6,0.5,0.8l-0.2,0.4L15.4,23
				L15.5,22.8z"/>
			<path class="st4" d="M18.3,20.6c0.2,0,0.4,0.1,0.4,0.3c0,0.2,0,0.4,0,0.6c0,0,0,0.1,0,0.1c0,0.4,0.1,0.8,0.2,1l-0.6,0.6l-0.7-0.6
				c0.1-0.2,0.1-0.6,0.2-1c0,0,0-0.1,0-0.1c0-0.2,0-0.4,0-0.6C17.9,20.7,18.1,20.6,18.3,20.6"/>
			<path class="st4" d="M18.3,20.8c0.1,0,0.2,0.1,0.2,0.2c0,0.2,0,0.3,0,0.5c0,0,0,0.1,0,0.1c0,0.4,0.1,0.7,0.1,1L18.3,23l-0.4-0.4
				c0.1-0.2,0.1-0.6,0.1-1c0,0,0-0.1,0-0.1c0-0.2,0-0.4,0-0.5C18.1,20.9,18.2,20.8,18.3,20.8"/>
			<path class="st4" d="M21.3,23c0.3-0.2,0.5-0.6,0.5-0.9c0-0.4-0.3-0.8-0.7-1c0.2,0.2,0.4,0.5,0.4,0.7c0,0,0,0.1,0,0.1
				c0,0.3-0.2,0.6-0.4,0.8L21.3,23z"/>
			<path class="st4" d="M24,23.4c0.2-0.2,0.3-0.5,0.3-0.7c0-0.2,0-0.3-0.1-0.5c-0.3-0.5-1.1-0.9-2-0.9c-0.3,0-0.5,0-0.7,0.1
				c0.1,0.1,0.1,0.1,0.1,0.2c0.2,0,0.4-0.1,0.6-0.1c0.9,0,1.6,0.3,1.8,0.8c0.1,0.1,0.1,0.2,0.1,0.4c0,0.3-0.1,0.5-0.3,0.7l0.3,0.5
				l0.2-0.2L24,23.4"/>
			<path class="st4" d="M23.7,21.7c0.2,0.1,0.4,0.3,0.5,0.5c0.1,0.1,0.1,0.3,0.1,0.5c0,0.3-0.1,0.5-0.3,0.7l0.2,0.3
				c0.2-0.2,0.3-0.5,0.3-0.8C24.5,22.4,24.2,22,23.7,21.7"/>
			<path class="st4" d="M15.5,22.8c-0.2-0.2-0.4-0.5-0.4-0.8c0,0,0-0.1,0-0.1c0-0.3,0.2-0.5,0.4-0.7c-0.4,0.2-0.7,0.6-0.7,1
				c0,0.4,0.2,0.7,0.5,0.9L15.5,22.8z"/>
			<path class="st4" d="M12.6,23.4l-0.2,0.3l0.1,0.2l0.3-0.5c-0.2-0.2-0.3-0.4-0.3-0.7c0-0.1,0-0.3,0.1-0.4c0.2-0.5,0.9-0.8,1.8-0.8
				c0.2,0,0.4,0,0.6,0.1c0-0.1,0.1-0.1,0.1-0.2c-0.2-0.1-0.5-0.1-0.7-0.1c-0.9,0-1.7,0.4-2,0.9c-0.1,0.1-0.1,0.3-0.1,0.5
				C12.3,23,12.4,23.2,12.6,23.4"/>
			<path class="st4" d="M12.9,21.7c-0.5,0.3-0.8,0.7-0.8,1.2c0,0.3,0.1,0.6,0.3,0.8l0.2-0.3c-0.2-0.2-0.3-0.5-0.3-0.7
				c0-0.2,0-0.3,0.1-0.5C12.5,22,12.7,21.9,12.9,21.7"/>
			<path class="st5" d="M12.1,23.9c0-0.1,0.1-0.1,0.1-0.1c0.1,0,0.1,0.1,0.1,0.1S12.3,24,12.2,24C12.1,24,12.1,24,12.1,23.9z"/>
			<path class="st5" d="M11.9,23.6c0-0.1,0.1-0.1,0.1-0.1c0.1,0,0.1,0.1,0.1,0.1c0,0.1-0.1,0.1-0.1,0.1
				C11.9,23.7,11.9,23.6,11.9,23.6z"/>
			<path class="st5" d="M11.8,23.2c0-0.1,0.1-0.1,0.1-0.1c0.1,0,0.1,0.1,0.1,0.1c0,0.1-0.1,0.1-0.1,0.1
				C11.8,23.3,11.8,23.3,11.8,23.2z"/>
			<path class="st5" d="M11.7,22.8c0-0.1,0.1-0.1,0.1-0.1c0.1,0,0.1,0.1,0.1,0.1c0,0.1-0.1,0.1-0.1,0.1
				C11.8,22.9,11.7,22.9,11.7,22.8z"/>
			<path class="st5" d="M11.8,22.4c0-0.1,0.1-0.1,0.1-0.1c0.1,0,0.1,0.1,0.1,0.1c0,0.1-0.1,0.1-0.1,0.1
				C11.9,22.5,11.8,22.5,11.8,22.4z"/>
			<path class="st5" d="M12,22.1c0-0.1,0.1-0.1,0.1-0.1c0.1,0,0.1,0.1,0.1,0.1s-0.1,0.1-0.1,0.1C12.1,22.2,12,22.1,12,22.1z"/>
			<path class="st5" d="M12.3,21.8c0-0.1,0.1-0.1,0.1-0.1c0.1,0,0.1,0.1,0.1,0.1c0,0.1-0.1,0.1-0.1,0.1
				C12.4,21.9,12.3,21.8,12.3,21.8z"/>
			<path class="st5" d="M12.6,21.5c0-0.1,0.1-0.1,0.1-0.1c0.1,0,0.1,0.1,0.1,0.1c0,0.1-0.1,0.1-0.1,0.1
				C12.7,21.7,12.6,21.6,12.6,21.5z"/>
			<path class="st5" d="M13,21.3c0-0.1,0.1-0.1,0.1-0.1c0.1,0,0.1,0.1,0.1,0.1s-0.1,0.1-0.1,0.1C13.1,21.5,13,21.4,13,21.3z"/>
			<path class="st5" d="M13.4,21.2c0-0.1,0.1-0.1,0.1-0.1c0.1,0,0.1,0.1,0.1,0.1c0,0.1-0.1,0.1-0.1,0.1
				C13.4,21.3,13.4,21.3,13.4,21.2z"/>
			<path class="st5" d="M13.8,21.1c0-0.1,0.1-0.1,0.1-0.1c0.1,0,0.1,0.1,0.1,0.1c0,0.1-0.1,0.1-0.1,0.1
				C13.9,21.2,13.8,21.2,13.8,21.1z"/>
			<path class="st5" d="M14.2,21.1c0-0.1,0.1-0.1,0.1-0.1c0.1,0,0.1,0.1,0.1,0.1c0,0.1-0.1,0.1-0.1,0.1
				C14.3,21.2,14.2,21.2,14.2,21.1z"/>
			<path class="st5" d="M14.6,21.1c0-0.1,0.1-0.1,0.1-0.1c0.1,0,0.1,0.1,0.1,0.1c0,0.1-0.1,0.1-0.1,0.1
				C14.7,21.2,14.6,21.2,14.6,21.1z"/>
			<path class="st5" d="M15,21.1c0-0.1,0.1-0.1,0.1-0.1c0.1,0,0.1,0.1,0.1,0.1c0,0.1-0.1,0.1-0.1,0.1C15.1,21.2,15,21.2,15,21.1z"/>
			<path class="st5" d="M14.8,21.5c0-0.1,0.1-0.1,0.1-0.1c0.1,0,0.1,0.1,0.1,0.1c0,0.1-0.1,0.1-0.1,0.1
				C14.9,21.6,14.8,21.5,14.8,21.5"/>
			<path class="st5" d="M14.8,21.8c0-0.1,0.1-0.1,0.1-0.1c0.1,0,0.1,0.1,0.1,0.1c0,0.1-0.1,0.1-0.1,0.1C14.8,22,14.8,21.9,14.8,21.8
				"/>
			<path class="st5" d="M14.7,22.2c0-0.1,0.1-0.1,0.1-0.1c0.1,0,0.1,0.1,0.1,0.1c0,0.1-0.1,0.1-0.1,0.1
				C14.8,22.3,14.7,22.3,14.7,22.2"/>
			<path class="st5" d="M14.9,22.6c0-0.1,0.1-0.1,0.1-0.1c0.1,0,0.1,0.1,0.1,0.1c0,0.1-0.1,0.1-0.1,0.1
				C14.9,22.7,14.9,22.6,14.9,22.6"/>
			<path class="st5" d="M15.1,22.9c0-0.1,0.1-0.1,0.1-0.1c0.1,0,0.1,0.1,0.1,0.1c0,0.1-0.1,0.1-0.1,0.1C15.1,23,15.1,23,15.1,22.9"
				/>
			<path class="st5" d="M15.3,20.9c0-0.1,0.1-0.1,0.1-0.1c0.1,0,0.1,0.1,0.1,0.1c0,0.1-0.1,0.1-0.1,0.1C15.4,21,15.3,20.9,15.3,20.9
				z"/>
			<path class="st5" d="M15.7,20.7c0-0.1,0.1-0.1,0.1-0.1c0.1,0,0.1,0.1,0.1,0.1c0,0.1-0.1,0.1-0.1,0.1
				C15.8,20.8,15.7,20.7,15.7,20.7z"/>
			<path class="st5" d="M16.1,20.6c0-0.1,0.1-0.1,0.1-0.1c0.1,0,0.1,0.1,0.1,0.1c0,0.1-0.1,0.1-0.1,0.1
				C16.2,20.7,16.1,20.6,16.1,20.6z"/>
			<path class="st5" d="M16.5,20.5c0-0.1,0.1-0.1,0.1-0.1c0.1,0,0.1,0.1,0.1,0.1c0,0.1-0.1,0.1-0.1,0.1
				C16.6,20.6,16.5,20.6,16.5,20.5z"/>
			<path class="st5" d="M16.9,20.5c0-0.1,0.1-0.1,0.1-0.1c0.1,0,0.1,0.1,0.1,0.1c0,0.1-0.1,0.1-0.1,0.1C17,20.6,16.9,20.6,16.9,20.5
				z"/>
			<path class="st5" d="M17.3,20.6c0-0.1,0.1-0.1,0.1-0.1c0.1,0,0.1,0.1,0.1,0.1c0,0.1-0.1,0.1-0.1,0.1
				C17.4,20.7,17.3,20.6,17.3,20.6z"/>
			<path class="st5" d="M17.7,20.7c0-0.1,0.1-0.1,0.1-0.1c0.1,0,0.1,0.1,0.1,0.1c0,0.1-0.1,0.1-0.1,0.1
				C17.8,20.8,17.7,20.8,17.7,20.7z"/>
			<path class="st5" d="M18.1,22.7c0-0.1,0.1-0.2,0.2-0.2c0.1,0,0.2,0.1,0.2,0.2c0,0.1-0.1,0.2-0.2,0.2
				C18.2,22.9,18.1,22.8,18.1,22.7z"/>
			<path class="st5" d="M18.1,22.3c0-0.1,0.1-0.2,0.2-0.2c0.1,0,0.2,0.1,0.2,0.2c0,0.1-0.1,0.2-0.2,0.2
				C18.2,22.5,18.1,22.4,18.1,22.3"/>
			<path class="st5" d="M18.1,21.8c0-0.1,0.1-0.2,0.2-0.2c0.1,0,0.2,0.1,0.2,0.2c0,0.1-0.1,0.2-0.2,0.2C18.2,22,18.1,21.9,18.1,21.8
				"/>
			<path class="st5" d="M18.2,21.4c0-0.1,0.1-0.1,0.1-0.1c0.1,0,0.1,0.1,0.1,0.1c0,0.1-0.1,0.1-0.1,0.1
				C18.2,21.5,18.2,21.5,18.2,21.4"/>
			<path class="st5" d="M18.2,21.1c0-0.1,0-0.1,0.1-0.1c0.1,0,0.1,0,0.1,0.1c0,0.1,0,0.1-0.1,0.1C18.2,21.2,18.2,21.1,18.2,21.1"/>
			<path class="st5" d="M24.4,24c-0.1,0-0.1-0.1-0.1-0.1s0.1-0.1,0.1-0.1c0.1,0,0.1,0.1,0.1,0.1S24.5,24,24.4,24z"/>
			<path class="st5" d="M24.6,23.7c-0.1,0-0.1-0.1-0.1-0.1c0-0.1,0.1-0.1,0.1-0.1c0.1,0,0.1,0.1,0.1,0.1
				C24.7,23.6,24.7,23.7,24.6,23.7z"/>
			<path class="st5" d="M24.7,23.3c-0.1,0-0.1-0.1-0.1-0.1c0-0.1,0.1-0.1,0.1-0.1c0.1,0,0.1,0.1,0.1,0.1
				C24.8,23.3,24.8,23.3,24.7,23.3z"/>
			<path class="st5" d="M24.7,22.9c-0.1,0-0.1-0.1-0.1-0.1c0-0.1,0.1-0.1,0.1-0.1c0.1,0,0.1,0.1,0.1,0.1
				C24.9,22.9,24.8,22.9,24.7,22.9z"/>
			<path class="st5" d="M24.6,22.5c-0.1,0-0.1-0.1-0.1-0.1c0-0.1,0.1-0.1,0.1-0.1c0.1,0,0.1,0.1,0.1,0.1
				C24.8,22.5,24.7,22.5,24.6,22.5z"/>
			<path class="st5" d="M24.4,22.2c-0.1,0-0.1-0.1-0.1-0.1s0.1-0.1,0.1-0.1c0.1,0,0.1,0.1,0.1,0.1S24.5,22.2,24.4,22.2z"/>
			<path class="st5" d="M24.2,21.9c-0.1,0-0.1-0.1-0.1-0.1c0-0.1,0.1-0.1,0.1-0.1c0.1,0,0.1,0.1,0.1,0.1
				C24.3,21.8,24.2,21.9,24.2,21.9z"/>
			<path class="st5" d="M23.9,21.7c-0.1,0-0.1-0.1-0.1-0.1c0-0.1,0.1-0.1,0.1-0.1c0.1,0,0.1,0.1,0.1,0.1
				C24,21.6,23.9,21.7,23.9,21.7z"/>
			<path class="st5" d="M23.5,21.5c-0.1,0-0.1-0.1-0.1-0.1s0.1-0.1,0.1-0.1c0.1,0,0.1,0.1,0.1,0.1S23.5,21.5,23.5,21.5z"/>
			<path class="st5" d="M23.1,21.3c-0.1,0-0.1-0.1-0.1-0.1c0-0.1,0.1-0.1,0.1-0.1c0.1,0,0.1,0.1,0.1,0.1
				C23.2,21.3,23.2,21.3,23.1,21.3z"/>
			<path class="st5" d="M22.7,21.2c-0.1,0-0.1-0.1-0.1-0.1c0-0.1,0.1-0.1,0.1-0.1c0.1,0,0.1,0.1,0.1,0.1
				C22.8,21.2,22.7,21.2,22.7,21.2z"/>
			<path class="st5" d="M22.2,21.2c-0.1,0-0.1-0.1-0.1-0.1c0-0.1,0.1-0.1,0.1-0.1c0.1,0,0.1,0.1,0.1,0.1
				C22.4,21.2,22.3,21.2,22.2,21.2z"/>
			<path class="st5" d="M21.8,21.2c-0.1,0-0.1-0.1-0.1-0.1c0-0.1,0.1-0.1,0.1-0.1c0.1,0,0.1,0.1,0.1,0.1
				C22,21.2,21.9,21.2,21.8,21.2z"/>
			<path class="st5" d="M21.4,21.2c-0.1,0-0.1-0.1-0.1-0.1c0-0.1,0.1-0.1,0.1-0.1c0.1,0,0.1,0.1,0.1,0.1
				C21.6,21.2,21.5,21.2,21.4,21.2z"/>
			<path class="st5" d="M21.8,21.5c0,0.1-0.1,0.1-0.1,0.1c-0.1,0-0.1-0.1-0.1-0.1c0-0.1,0.1-0.1,0.1-0.1
				C21.7,21.3,21.8,21.4,21.8,21.5"/>
			<path class="st5" d="M21.8,21.8c0,0.1-0.1,0.1-0.1,0.1c-0.1,0-0.1-0.1-0.1-0.1c0-0.1,0.1-0.1,0.1-0.1
				C21.8,21.7,21.8,21.8,21.8,21.8"/>
			<path class="st5" d="M21.9,22.2c0,0.1-0.1,0.1-0.1,0.1c-0.1,0-0.1-0.1-0.1-0.1c0-0.1,0.1-0.1,0.1-0.1
				C21.8,22.1,21.9,22.2,21.9,22.2"/>
			<path class="st5" d="M21.7,22.6c0,0.1-0.1,0.1-0.1,0.1c-0.1,0-0.1-0.1-0.1-0.1c0-0.1,0.1-0.1,0.1-0.1
				C21.7,22.4,21.7,22.5,21.7,22.6"/>
			<path class="st5" d="M21.5,22.9c0,0.1-0.1,0.1-0.1,0.1c-0.1,0-0.1-0.1-0.1-0.1c0-0.1,0.1-0.1,0.1-0.1
				C21.5,22.8,21.5,22.8,21.5,22.9"/>
			<path class="st5" d="M21.1,21c-0.1,0-0.1-0.1-0.1-0.1c0-0.1,0.1-0.1,0.1-0.1c0.1,0,0.1,0.1,0.1,0.1C21.3,20.9,21.2,21,21.1,21z"
				/>
			<path class="st5" d="M20.8,20.8c-0.1,0-0.1-0.1-0.1-0.1c0-0.1,0.1-0.1,0.1-0.1c0.1,0,0.1,0.1,0.1,0.1
				C20.9,20.7,20.8,20.8,20.8,20.8z"/>
			<path class="st5" d="M20.4,20.7c-0.1,0-0.1-0.1-0.1-0.1c0-0.1,0.1-0.1,0.1-0.1c0.1,0,0.1,0.1,0.1,0.1
				C20.5,20.6,20.4,20.7,20.4,20.7z"/>
			<path class="st5" d="M20,20.6c-0.1,0-0.1-0.1-0.1-0.1c0-0.1,0.1-0.1,0.1-0.1c0.1,0,0.1,0.1,0.1,0.1C20.1,20.6,20,20.6,20,20.6z"
				/>
			<path class="st5" d="M19.6,20.6c-0.1,0-0.1-0.1-0.1-0.1c0-0.1,0.1-0.1,0.1-0.1c0.1,0,0.1,0.1,0.1,0.1
				C19.7,20.6,19.6,20.6,19.6,20.6z"/>
			<path class="st5" d="M19.1,20.7c-0.1,0-0.1-0.1-0.1-0.1c0-0.1,0.1-0.1,0.1-0.1c0.1,0,0.1,0.1,0.1,0.1
				C19.3,20.6,19.2,20.7,19.1,20.7z"/>
			<path class="st5" d="M18.8,20.8c-0.1,0-0.1-0.1-0.1-0.1c0-0.1,0.1-0.1,0.1-0.1c0.1,0,0.1,0.1,0.1,0.1
				C18.9,20.8,18.8,20.8,18.8,20.8z"/>
			<path class="st6" d="M17.8,20.1c0-0.3,0.2-0.5,0.5-0.5c0.3,0,0.5,0.2,0.5,0.5c0,0.3-0.2,0.5-0.5,0.5C18,20.6,17.8,20.4,17.8,20.1
				"/>
			<g id="Layer_4_1_">
				<path class="st4" d="M18.8,20h-0.4v-0.8h0.3V19h-0.3v-0.3h-0.3V19h-0.3v0.3h0.3V20h-0.4c0,0,0,0,0,0.1c0,0.1,0,0.1,0,0.2h1
					C18.8,20.2,18.8,20.2,18.8,20C18.8,20.1,18.8,20.1,18.8,20z"/>
			</g>
			<path class="st4" d="M15.4,24.3c0,0-0.1-0.1-0.1-0.1c0-0.1,0-0.1,0-0.1c0,0-0.1-0.1-0.2-0.1c-0.1,0-0.2,0-0.3,0c0,0-0.1,0-0.1,0
				s0,0,0,0.1c0,0.1,0.1,0.1,0.1,0.1c-0.2,0-0.3,0.1-0.4,0.2c0.1,0.1,0.3,0.1,0.4,0.1c0,0,0,0,0,0.1c0,0,0,0.1,0,0.1s0.1,0,0.1,0
				c0,0,0.2-0.1,0.3-0.1C15.4,24.4,15.4,24.3,15.4,24.3z"/>
			<path class="st4" d="M18.5,24c0,0,0.1-0.1,0.1-0.2c0-0.1,0-0.1-0.1-0.2c0,0,0.1-0.1,0.2-0.1c0.1,0,0.3-0.1,0.3-0.1
				c0.1,0,0.2,0,0.2,0s0,0,0,0.1c0,0.1,0,0.1,0,0.1c0.2,0,0.3,0.1,0.5,0.2c-0.1,0.1-0.3,0.2-0.5,0.2c0,0,0,0,0,0.1
				c0,0.1,0,0.1,0,0.1l-0.2,0c-0.1,0-0.2,0-0.3-0.1C18.6,24.1,18.5,24,18.5,24L18.5,24z"/>
			<path class="st4" d="M14.2,24.4c-0.1-0.1-0.3-0.1-0.5-0.1c0,0,0,0,0-0.1c0,0,0-0.1,0-0.1s-0.1,0.1-0.2,0.1
				c-0.1,0-0.2,0.1-0.3,0.2c-0.1,0.1-0.1,0.2-0.1,0.2s0.1-0.3,0-0.5c-0.1-0.2-0.2-0.2-0.2-0.2l0,0.1c-0.1-0.1-0.2-0.1-0.3-0.1
				c-0.2,0-0.4,0.2-0.4,0.3c0,0,0.3,0,0.4,0.1c0.2,0.1,0.3,0.3,0.3,0.3c0,0,0,0,0,0c0.1-0.1,0.2-0.1,0.3,0c0,0,0.1,0.1,0.1,0.1
				c0.1,0,0.1,0,0.2,0c0.1,0,0.3,0,0.3,0c0,0,0.2,0,0.2,0s0,0-0.1-0.1c0,0-0.1-0.1-0.1-0.1C14,24.6,14.1,24.5,14.2,24.4z"/>
			<path class="st4" d="M15.8,24.2c0,0,0-0.1,0-0.1c0-0.1,0-0.1-0.1-0.1c0,0,0.1-0.1,0.2-0.2c0.1,0,0.2-0.1,0.3-0.1c0,0,0.1,0,0.1,0
				s0,0,0,0.1c0,0.1,0,0.1,0,0.1c0.2,0,0.3,0,0.4,0.1c-0.1,0.1-0.2,0.2-0.4,0.2c0,0,0,0,0.1,0.1c0,0,0,0.1,0,0.1s-0.1,0-0.1,0
				c0,0-0.2,0-0.3,0C15.9,24.3,15.8,24.2,15.8,24.2L15.8,24.2z"/>
			<path class="st4" d="M18.1,24c0,0-0.1-0.1-0.1-0.2c0-0.1,0-0.1,0.1-0.2c0,0-0.1-0.1-0.2-0.1c-0.1,0-0.3-0.1-0.3-0.1
				c-0.1,0-0.2,0-0.2,0s0,0,0,0.1c0,0.1,0,0.1,0,0.1c-0.2,0-0.3,0.1-0.5,0.2c0.1,0.1,0.3,0.2,0.5,0.2c0,0,0,0,0,0.1
				c0,0.1,0,0.1,0,0.1s0.1,0,0.2,0c0,0,0.2,0,0.3-0.1C18,24.1,18.1,24,18.1,24L18.1,24z"/>
			<path class="st4" d="M18.7,23c-0.1,0-0.1,0.1-0.1,0.1c0-0.2-0.1-0.3-0.2-0.5c-0.1,0.1-0.2,0.3-0.2,0.5c0,0,0,0-0.1-0.1
				c-0.1,0-0.2,0-0.2,0s0,0.1,0.1,0.2c0,0,0,0.2,0.1,0.3c0.1,0.1,0.1,0.2,0.1,0.2c0-0.1,0.1-0.1,0.2-0.1c0.1,0,0.2,0,0.2,0.1
				c0,0,0.1-0.1,0.1-0.2c0.1-0.1,0.1-0.3,0.1-0.3c0,0,0.1-0.2,0.1-0.2S18.7,23,18.7,23z"/>
			<path class="st4" d="M15.7,23.3C15.7,23.4,15.7,23.4,15.7,23.3c-0.1-0.1-0.2-0.2-0.4-0.3c-0.1,0.1-0.1,0.3-0.1,0.4c0,0,0,0-0.1,0
				c-0.1,0-0.1,0-0.1,0s0.1,0.1,0.1,0.1c0,0,0.1,0.2,0.1,0.2c0.1,0.1,0.1,0.2,0.1,0.2c0-0.1,0.1-0.1,0.2-0.1c0.1,0,0.1,0,0.2,0.1
				c0,0,0-0.1,0.1-0.2c0-0.1,0-0.2,0-0.3c0,0,0-0.2,0-0.2S15.8,23.3,15.7,23.3z"/>
			<path class="st4" d="M20.8,24.1c0-0.1,0-0.1,0.1-0.1c0,0-0.1-0.1-0.2-0.2c-0.1,0-0.2-0.1-0.3-0.1c0,0-0.1,0-0.1,0s0,0,0,0.1
				c0,0.1,0,0.1,0,0.1c-0.2,0-0.3,0-0.4,0.1c0.1,0.1,0.2,0.2,0.4,0.2c0,0,0,0-0.1,0.1c0,0,0,0.1,0,0.1l0.1,0c0,0,0.2,0,0.3,0
				c0.1,0,0.2-0.1,0.2-0.1l0,0C20.8,24.2,20.8,24.1,20.8,24.1z"/>
			<path class="st4" d="M21.5,23.4c-0.1,0-0.1,0-0.1,0c0-0.2,0-0.3-0.1-0.4c-0.1,0.1-0.2,0.2-0.3,0.4c0,0,0,0-0.1-0.1
				c-0.1,0-0.1,0-0.1,0s0,0.1,0,0.2c0,0,0,0.2,0,0.3c0,0.1,0.1,0.2,0.1,0.2c0,0,0.1-0.1,0.2-0.1c0.1,0,0.1,0.1,0.2,0.1
				c0,0,0.1-0.1,0.1-0.2c0.1-0.1,0.1-0.2,0.1-0.2c0,0,0.1-0.1,0.1-0.1S21.6,23.4,21.5,23.4z"/>
			<path class="st4" d="M21.7,24.4c0.2,0,0.3,0,0.4-0.1c-0.1-0.1-0.2-0.2-0.4-0.2c0,0,0,0,0.1-0.1c0,0,0-0.1,0-0.1s-0.1,0-0.1,0
				c0,0-0.2,0-0.3,0c-0.1,0-0.2,0.1-0.2,0.1c0,0,0,0.1,0,0.1c0,0.1,0,0.1-0.1,0.1c0,0,0.1,0.1,0.2,0.2c0.1,0,0.2,0.1,0.3,0.1
				c0,0,0.1,0,0.1,0s0,0,0-0.1C21.7,24.4,21.7,24.4,21.7,24.4z"/>
			<path class="st4" d="M24.1,23.9c-0.1,0-0.2,0-0.3,0.1l0-0.1c0,0-0.2,0-0.2,0.2c-0.1,0.2,0,0.5,0,0.5s0-0.1-0.1-0.2
				c-0.1-0.1-0.2-0.2-0.3-0.2c-0.1,0-0.2-0.1-0.2-0.1s0,0,0,0.1c0,0.1,0,0.1,0,0.1c-0.1,0-0.3,0-0.5,0.1c0.1,0.1,0.2,0.2,0.3,0.3
				c0,0-0.1,0-0.1,0.1c0,0-0.1,0.1-0.1,0.1s0.1,0,0.2,0c0,0,0.2,0,0.3,0c0.1,0,0.2,0,0.2,0c0,0,0-0.1,0.1-0.1c0.1-0.1,0.2-0.1,0.3,0
				c0,0,0,0,0,0c0,0,0.1-0.3,0.3-0.3c0.2-0.1,0.4-0.1,0.4-0.1C24.4,24.1,24.3,23.9,24.1,23.9z"/>
			<path class="st3" d="M15.3,24.1c0-0.1,0.1-0.2,0.3-0.2c0.1,0,0.3,0.1,0.3,0.2c0,0.1-0.1,0.2-0.3,0.2
				C15.4,24.3,15.3,24.2,15.3,24.1"/>
			<path class="st3" d="M20.8,24.1c0-0.1,0.1-0.2,0.3-0.2c0.1,0,0.3,0.1,0.3,0.2c0,0.1-0.1,0.2-0.3,0.2
				C20.9,24.3,20.8,24.2,20.8,24.1"/>
			<path class="st3" d="M23.7,24.6c-0.1-0.1-0.2-0.1-0.3,0c-0.1,0.1-0.1,0.2-0.1,0.3c0.1,0.1,0.2,0,0.3,0
				C23.7,24.8,23.7,24.7,23.7,24.6"/>
			<path class="st3" d="M12.9,24.6c0.1-0.1,0.2-0.1,0.3,0c0.1,0.1,0.1,0.2,0.1,0.3c-0.1,0.1-0.2,0-0.3,0
				C12.9,24.8,12.9,24.7,12.9,24.6"/>
			<path class="st3" d="M18.1,23.9c0-0.1,0.1-0.2,0.3-0.2c0.1,0,0.3,0.1,0.3,0.2c0,0.1-0.1,0.2-0.3,0.2C18.2,24.1,18.1,24,18.1,23.9
				"/>
			<path class="st4" d="M18.3,27.2c-1.5,0-2.8-0.2-3.7-0.5c-0.1,0-0.1-0.1-0.1-0.1c0-0.1,0-0.1,0.1-0.1c0.9-0.3,2.3-0.5,3.7-0.5
				c1.5,0,2.8,0.2,3.7,0.5c0.1,0,0.1,0.1,0.1,0.1c0,0.1,0,0.1-0.1,0.1C21.1,27,19.8,27.2,18.3,27.2"/>
			<path class="st4" d="M18.3,26c-1.8,0-3,0.2-3.7,0.5c0.1,0,0-0.1-0.1-0.4c-0.1-0.3-0.3-0.3-0.3-0.3c1-0.3,2.5-0.5,4.1-0.5
				c1.6,0,3.1,0.2,4.1,0.5c0,0-0.2,0-0.3,0.3c-0.1,0.2-0.1,0.3,0,0.4C21.1,26.2,19.8,26,18.3,26"/>
			<path class="st5" d="M22.4,24.8c0-0.1,0-0.2-0.1-0.2c-0.1,0-0.2,0-0.2,0.1c0,0.1,0,0.2,0.1,0.2C22.2,24.9,22.3,24.9,22.4,24.8"/>
			<path class="st5" d="M19.8,24.3c0-0.1,0-0.2-0.1-0.2c-0.1,0-0.1,0.1-0.2,0.2c0,0.1,0,0.2,0.1,0.2C19.7,24.4,19.8,24.4,19.8,24.3"
				/>
			<path class="st5" d="M16.8,24.3c0-0.1,0-0.2,0.1-0.2c0.1,0,0.2,0.1,0.2,0.2c0,0.1,0,0.2-0.1,0.2C16.9,24.4,16.8,24.4,16.8,24.3"
				/>
			<path class="st5" d="M14.3,24.8c0-0.1,0-0.2,0.1-0.2c0.1,0,0.2,0,0.2,0.1c0,0.1,0,0.2-0.1,0.2C14.4,24.9,14.3,24.9,14.3,24.8"/>
			<path class="st5" d="M17.2,25.6c0-0.1,0.1-0.1,0.1-0.1s0.1,0.1,0.1,0.1s-0.1,0.1-0.1,0.1S17.2,25.7,17.2,25.6"/>
			<path class="st3" d="M17.9,25.7c-0.1,0-0.1-0.1-0.1-0.1c0-0.1,0.1-0.1,0.1-0.1h0.8c0.1,0,0.1,0.1,0.1,0.1c0,0.1-0.1,0.1-0.1,0.1
				H17.9z"/>
			<path class="st7" d="M16.6,25.6L16,25.6c-0.1,0-0.1,0.1-0.1,0.1c0,0.1,0.1,0.1,0.2,0.1l0.6-0.1c0.1,0,0.1-0.1,0.1-0.1
				C16.7,25.6,16.7,25.6,16.6,25.6z"/>
			<path class="st5" d="M15.2,25.9c0-0.1,0.1-0.1,0.1-0.1c0.1,0,0.1,0.1,0.1,0.1c0,0.1-0.1,0.1-0.1,0.1C15.2,26,15.2,25.9,15.2,25.9
				"/>
			<path class="st3" d="M14.3,26.1l0.1-0.2l0.4,0.1l-0.3,0.2L14.3,26.1z"/>
			<path class="st7" d="M20.6,25.9c0.1,0,0.1,0,0.1-0.1c0-0.1,0-0.1-0.1-0.1L20,25.6c-0.1,0-0.1,0-0.1,0.1c0,0.1,0,0.1,0.1,0.1
				L20.6,25.9z"/>
			<path class="st5" d="M19.2,25.6c0-0.1,0.1-0.1,0.1-0.1s0.1,0.1,0.1,0.1s-0.1,0.1-0.1,0.1S19.2,25.7,19.2,25.6"/>
			<path class="st5" d="M21.2,25.9c0-0.1,0.1-0.1,0.1-0.1c0.1,0,0.1,0.1,0.1,0.1c0,0.1-0.1,0.1-0.1,0.1C21.2,26,21.2,25.9,21.2,25.9
				"/>
			<path class="st3" d="M22.3,26.1l-0.1-0.2L21.8,26l0.3,0.2L22.3,26.1z"/>
			<path class="st3" d="M18.3,27c-1.3,0-2.5-0.2-3.4-0.4c0.9-0.2,2.1-0.4,3.4-0.4c1.3,0,2.5,0.1,3.4,0.4C20.8,26.8,19.6,27,18.3,27"
				/>
			<path class="st8" d="M14.7,26.6c0.9-0.3,2.2-0.4,3.6-0.4c1.4,0,2.7,0.2,3.6,0.4"/>
			<path class="st9" d="M18.4,27v-0.8"/>
			<path class="st10" d="M18.2,27v-0.8"/>
			<path class="st11" d="M18,27v-0.8"/>
			<path class="st12" d="M17.8,27v-0.8"/>
			<path class="st13" d="M17.6,27v-0.8"/>
			<path class="st14" d="M17.3,26.9l0-0.7 M17.4,27v-0.7"/>
			<path class="st15" d="M17,26.9v-0.6 M17.1,26.9l0-0.7"/>
			<path class="st16" d="M16.5,26.9v-0.6 M16.7,26.9v-0.6 M16.8,26.9v-0.6"/>
			<path class="st17" d="M16.4,26.9v-0.5"/>
			<path class="st18" d="M16.3,26.8v-0.5"/>
			<path class="st19" d="M16.1,26.8v-0.5"/>
			<path class="st20" d="M15.8,26.8l0-0.4 M16,26.8v-0.4"/>
			<path class="st21" d="M15.7,26.8v-0.3"/>
			<path class="st22" d="M15.5,26.7v-0.3"/>
			<path class="st23" d="M15.4,26.7v-0.2"/>
			<path class="st24" d="M15.2,26.7v-0.2"/>
			<path class="st25" d="M15,26.6L15,26.6"/>
			<path class="st26" d="M19.3,26.9v-0.7 M18.9,27l0-0.7 M18.6,27v-0.8"/>
			<g>
				<g>
					<path class="st27" d="M27.3,26.5c0,0-0.1,0.1-0.2,0.1c-0.1,0-0.1-0.1-0.1-0.1s-0.1,0.1-0.1,0.1c-0.1,0-0.2-0.1-0.2-0.1
						s-0.1,0.1-0.1,0.1c-0.1,0-0.1,0-0.1,0s0,0-0.1,0.1c0,0-0.1,0-0.1,0l-0.1,0l-0.1-0.1l-0.1,0c0,0,0-0.1,0-0.1c0,0,0-0.1,0-0.1
						c0-0.1,0.1-0.2,0.3-0.2c0.1,0,0.2,0,0.2,0c0.1-0.1,0.2-0.1,0.4-0.1c0.2,0,0.3,0,0.4,0.1c0.1,0,0.2-0.1,0.4-0.1
						c0.2,0,0.3,0,0.4,0.1c0.1,0,0.1,0,0.2,0c0.2,0,0.3,0.1,0.3,0.2c0,0,0,0.1,0,0.1c0,0,0,0.1,0,0.1l-0.1,0l-0.1,0.1l-0.1,0
						c0,0,0,0-0.1,0c0,0-0.1-0.1-0.1-0.1s-0.1,0-0.1,0c-0.1,0-0.1-0.1-0.1-0.1s-0.1,0.1-0.2,0.1c-0.1,0-0.1-0.1-0.1-0.1
						s-0.1,0.1-0.1,0.1C27.3,26.6,27.3,26.5,27.3,26.5"/>
					<path class="st28" d="M28.2,26.7L28.2,26.7c-0.1-0.1-0.1,0-0.2,0c-0.1,0-0.1-0.1-0.1-0.1s-0.1,0.1-0.2,0.1
						c-0.1,0-0.1-0.1-0.1-0.1s-0.1,0.1-0.2,0.1c-0.1,0-0.1-0.1-0.1-0.1s-0.1,0.1-0.1,0.1c-0.1,0-0.1-0.1-0.1-0.1s0,0.1-0.1,0.1
						c-0.1,0-0.2-0.1-0.2-0.1s-0.1,0.1-0.1,0.1c-0.1,0-0.2,0-0.2,0s0,0,0,0.1c0,0,0,0,0,0l0,0.1c0.2-0.1,0.5-0.1,0.9-0.1
						C27.6,26.6,27.9,26.7,28.2,26.7L28.2,26.7"/>
					<path class="st29" d="M27.3,26.4C27.3,26.4,27.3,26.4,27.3,26.4c0,0.1,0.1,0.2,0.1,0.2c0.1,0,0.1,0,0.1-0.1c0,0,0,0,0,0
						c0,0,0,0,0,0c0,0.1,0.1,0.1,0.1,0.1c0.1,0,0.1-0.1,0.1-0.1c0,0,0,0,0,0c0,0,0,0.1,0,0.1c0,0.1,0.1,0.1,0.1,0.1
						c0,0,0.1,0,0.1-0.1l0,0l0,0c0,0,0,0.1,0.1,0.1c0,0,0,0,0.1,0c0.1,0,0.1-0.1,0.1-0.1l0,0c0,0-0.1,0.1-0.1,0.1c0,0-0.1,0-0.1,0
						c0,0-0.1,0-0.1-0.1c0,0-0.1,0-0.1,0c-0.1,0-0.1,0-0.2-0.1c0,0-0.1,0.1-0.1,0.1c-0.1,0-0.1,0-0.1-0.1c0,0-0.1,0.1-0.1,0.1
						c-0.1,0-0.1,0-0.2-0.1c0,0-0.1,0.1-0.2,0.1c0,0-0.1,0-0.1-0.1c0,0-0.1,0.1-0.1,0.1c-0.1,0-0.1,0-0.1-0.1c0,0.1-0.1,0.1-0.2,0.1
						c0,0-0.1,0-0.1,0c0,0,0,0.1-0.1,0.1c0,0-0.1,0-0.1,0c-0.1,0-0.1-0.1-0.1-0.1l0,0c0,0,0,0,0.1,0.1c0.1,0,0.1,0,0.1,0
						c0,0,0.1,0,0.1-0.1v0l0,0c0,0,0.1,0.1,0.1,0.1c0.1,0,0.1-0.1,0.1-0.1c0,0,0,0,0-0.1c0,0,0.1,0,0.1,0c0,0.1,0.1,0.1,0.1,0.1
						c0.1,0,0.1,0,0.1-0.1c0,0,0,0,0,0c0,0,0,0,0,0c0,0.1,0.1,0.1,0.1,0.1C27.2,26.5,27.2,26.5,27.3,26.4
						C27.2,26.4,27.2,26.4,27.3,26.4"/>
					<path class="st29" d="M27.1,26c0-0.1,0.1-0.2,0.2-0.2c0.1,0,0.2,0.1,0.2,0.2c0,0.1-0.1,0.2-0.2,0.2
						C27.2,26.2,27.1,26.1,27.1,26"/>
					<path class="st29" d="M27.2,26c0-0.1,0-0.2,0.1-0.2c0,0,0.1,0.1,0.1,0.2c0,0.1,0,0.2-0.1,0.2C27.2,26.2,27.2,26.1,27.2,26"/>
					<path class="st29" d="M27.1,25.7c0-0.1,0-0.1,0.1-0.1c0.1,0,0.1,0,0.1,0.1c0,0.1-0.1,0.1-0.1,0.1
						C27.2,25.8,27.1,25.7,27.1,25.7"/>
					<polygon class="st29" points="27.3,25.6 27.3,25.5 27.4,25.5 27.4,25.4 27.3,25.4 27.3,25.4 27.2,25.4 27.2,25.4 27.1,25.4 
						27.1,25.5 27.2,25.5 27.2,25.6 27.1,25.6 27.1,25.7 27.4,25.7 27.4,25.6 					"/>
					<path class="st29" d="M26.4,26.9c0-0.1-0.1-0.1-0.1-0.1c0.2-0.1,0.6-0.1,0.9-0.1c0.4,0,0.7,0,0.9,0.1c0,0,0,0-0.1,0.1
						c0,0,0,0.1,0,0.1c-0.2-0.1-0.5-0.1-0.8-0.1C26.9,26.9,26.6,26.9,26.4,26.9C26.4,27,26.4,27,26.4,26.9L26.4,26.9"/>
					<path class="st29" d="M27.3,27.2c0.3,0,0.6,0,0.7-0.1c0.1,0,0.1-0.1,0.1-0.1c0,0,0,0,0,0c-0.2-0.1-0.5-0.1-0.8-0.1
						c-0.3,0-0.6,0-0.8,0.1c0,0,0,0,0,0c0,0,0,0.1,0.1,0.1C26.6,27.2,27,27.2,27.3,27.2"/>
					<path class="st29" d="M27.3,26.7c-0.4,0-0.7,0-0.9,0.1c0,0,0,0,0,0c0,0,0,0,0,0C26.5,26.7,26.9,26.6,27.3,26.7
						c0.4-0.1,0.7,0,0.9,0.1c0,0,0,0,0,0c0,0,0,0,0,0C27.9,26.7,27.6,26.7,27.3,26.7"/>
					<path class="st27" d="M27.2,27c-0.3,0-0.6,0-0.8,0.1c0.2,0.1,0.5,0.1,0.8,0.1c0.3,0,0.6,0,0.8-0.1C27.8,27,27.5,27,27.2,27z"/>
					<path class="st30" d="M26.9,26.8C26.9,26.8,26.9,26.8,26.9,26.8c0.1,0,0.1,0,0.1,0C27,26.8,27,26.9,26.9,26.8
						C26.9,26.9,26.9,26.8,26.9,26.8"/>
					<path class="st27" d="M27.4,26.8h-0.2c0,0,0,0,0,0c0,0,0,0,0,0L27.4,26.8C27.4,26.8,27.4,26.8,27.4,26.8
						C27.4,26.8,27.4,26.8,27.4,26.8z"/>
					<path class="st31" d="M26.7,26.8l-0.2,0c0,0,0,0,0,0c0,0,0,0,0,0L26.7,26.8C26.8,26.9,26.8,26.8,26.7,26.8
						C26.8,26.8,26.8,26.8,26.7,26.8z"/>
					<polygon class="st27" points="26.4,26.9 26.3,26.9 26.4,26.9 26.5,26.9 					"/>
					<path class="st30" d="M27.5,26.8C27.5,26.8,27.5,26.8,27.5,26.8c0.1,0,0.1,0,0.1,0C27.6,26.8,27.6,26.9,27.5,26.8
						C27.5,26.9,27.5,26.8,27.5,26.8"/>
					<path class="st31" d="M27.9,26.8l-0.2,0c0,0,0,0,0,0c0,0,0,0,0,0L27.9,26.8C27.9,26.9,28,26.9,27.9,26.8
						C28,26.8,27.9,26.8,27.9,26.8z"/>
					<polygon class="st27" points="28.1,26.9 28,26.9 28.1,26.9 28.2,26.9 					"/>
					<g>
						<g>
							<g>
								<polygon class="st28" points="28.1,26.6 28.1,26.4 28.1,26.6 								"/>
								<path class="st32" d="M28.1,26.5C28.2,26.5,28.2,26.5,28.1,26.5C28.2,26.5,28.2,26.5,28.1,26.5
									C28.2,26.5,28.1,26.5,28.1,26.5C28.1,26.5,28.1,26.5,28.1,26.5C28.1,26.5,28.1,26.5,28.1,26.5
									C28.1,26.5,28.1,26.5,28.1,26.5 M28.1,26.4C28.1,26.4,28.1,26.5,28.1,26.4c-0.1,0.1-0.1,0.1-0.1,0.1c0,0,0,0,0,0
									c0,0,0,0,0,0C28.2,26.6,28.2,26.6,28.1,26.4C28.2,26.5,28.2,26.4,28.1,26.4L28.1,26.4L28.1,26.4L28.1,26.4z"/>
							</g>
						</g>
						<g>
							<g>
								<polygon class="st28" points="27.6,26.5 27.6,26.4 27.6,26.5 								"/>
								<path class="st32" d="M27.6,26.4C27.6,26.4,27.6,26.4,27.6,26.4C27.6,26.4,27.6,26.4,27.6,26.4
									C27.6,26.4,27.6,26.4,27.6,26.4C27.6,26.4,27.6,26.4,27.6,26.4C27.5,26.4,27.5,26.4,27.6,26.4
									C27.5,26.4,27.5,26.4,27.6,26.4 M27.6,26.3C27.5,26.3,27.5,26.4,27.6,26.3c-0.1,0.1-0.1,0.1-0.1,0.1c0,0,0,0,0,0
									c0,0,0,0,0,0C27.6,26.5,27.6,26.4,27.6,26.3C27.6,26.4,27.6,26.4,27.6,26.3C27.6,26.3,27.6,26.3,27.6,26.3L27.6,26.3
									L27.6,26.3z"/>
							</g>
						</g>
						<g>
							<g>
								<polygon class="st28" points="26.9,26.5 26.9,26.4 26.9,26.5 								"/>
								<path class="st32" d="M26.9,26.4C27,26.4,27,26.4,26.9,26.4C27,26.4,27,26.4,26.9,26.4C27,26.4,27,26.4,26.9,26.4
									C26.9,26.4,26.9,26.4,26.9,26.4C26.9,26.4,26.9,26.4,26.9,26.4C26.9,26.4,26.9,26.4,26.9,26.4 M26.9,26.3L26.9,26.3
									L26.9,26.3C26.9,26.3,26.9,26.3,26.9,26.3C26.9,26.4,26.9,26.4,26.9,26.3c-0.1,0.1,0,0.1,0,0.1h0l0,0c0,0,0,0,0,0
									C27,26.5,27,26.4,26.9,26.3C27,26.4,27,26.3,26.9,26.3L26.9,26.3z"/>
							</g>
						</g>
						<g>
							<g>
								<polygon class="st28" points="26.4,26.6 26.3,26.5 26.4,26.6 								"/>
								<path class="st32" d="M26.4,26.5C26.4,26.5,26.4,26.5,26.4,26.5C26.4,26.5,26.4,26.5,26.4,26.5
									C26.4,26.5,26.4,26.5,26.4,26.5C26.4,26.5,26.3,26.5,26.4,26.5C26.3,26.5,26.3,26.5,26.4,26.5
									C26.4,26.5,26.4,26.5,26.4,26.5 M26.4,26.4L26.4,26.4L26.4,26.4C26.3,26.4,26.3,26.5,26.4,26.4
									C26.3,26.5,26.3,26.5,26.4,26.4c0,0.1,0,0.1,0,0.1c0,0,0,0,0,0c0,0,0,0,0,0C26.4,26.5,26.4,26.5,26.4,26.4
									C26.4,26.5,26.4,26.4,26.4,26.4L26.4,26.4z"/>
							</g>
						</g>
					</g>
					<path class="st33" d="M28,26.1C28,26,28,26,28,26.1c0.1-0.1,0.1,0,0.1,0C28.1,26.1,28,26.1,28,26.1C28,26.1,28,26.1,28,26.1z"
						/>
					<path class="st33" d="M27.9,25.9C27.9,25.9,28,25.8,27.9,25.9c0.1,0,0.1,0,0.1,0C28,25.9,28,25.9,27.9,25.9
						C28,25.9,27.9,25.9,27.9,25.9z M27.8,25.8C27.8,25.7,27.8,25.7,27.8,25.8c0.1-0.1,0.1,0,0.1,0C27.9,25.8,27.9,25.8,27.8,25.8
						C27.8,25.8,27.8,25.8,27.8,25.8z M27.6,25.7C27.6,25.7,27.6,25.7,27.6,25.7c0.1-0.1,0.1,0,0.1,0C27.7,25.7,27.7,25.8,27.6,25.7
						C27.6,25.8,27.6,25.7,27.6,25.7z M27.4,25.7C27.4,25.7,27.5,25.7,27.4,25.7c0.1-0.1,0.1,0,0.1,0C27.6,25.7,27.5,25.8,27.4,25.7
						C27.5,25.8,27.4,25.7,27.4,25.7z"/>
					<path class="st34" d="M28.5,26.4c0,0,0-0.1,0-0.1c0-0.2-0.2-0.3-0.3-0.3c-0.1,0-0.1,0-0.2,0"/>
					<path class="st35" d="M27.9,26.2c0,0,0-0.1,0-0.1c0-0.1-0.1-0.2-0.3-0.2c-0.1,0-0.1,0-0.2,0.1"/>
					<path class="st33" d="M28.5,26.3C28.5,26.2,28.6,26.2,28.5,26.3c0.1,0,0.1,0,0.1,0C28.6,26.3,28.6,26.3,28.5,26.3
						C28.6,26.3,28.5,26.3,28.5,26.3z M28.5,26.1C28.5,26,28.5,26,28.5,26.1c0.1-0.1,0.1,0,0.1,0C28.6,26.1,28.6,26.1,28.5,26.1
						C28.5,26.1,28.5,26.1,28.5,26.1z M28.4,25.9C28.4,25.9,28.4,25.9,28.4,25.9c0.1-0.1,0.1,0,0.1,0C28.5,25.9,28.5,26,28.4,25.9
						C28.4,26,28.4,25.9,28.4,25.9z M28.2,25.8C28.2,25.8,28.3,25.8,28.2,25.8c0.1,0,0.1,0,0.1,0C28.3,25.9,28.3,25.9,28.2,25.8
						C28.3,25.9,28.2,25.9,28.2,25.8z M28.1,25.8C28.1,25.8,28.1,25.8,28.1,25.8c0.1-0.1,0.1,0,0.1,0C28.2,25.9,28.1,25.9,28.1,25.8
						C28.1,25.9,28.1,25.9,28.1,25.8z"/>
					<path class="st33" d="M26.4,26.1C26.4,26,26.5,26,26.4,26.1c0.1-0.1,0.1,0,0.1,0C26.5,26.1,26.5,26.1,26.4,26.1
						C26.5,26.1,26.4,26.1,26.4,26.1z"/>
					<path class="st33" d="M26.5,25.9C26.5,25.9,26.5,25.8,26.5,25.9c0.1,0,0.1,0,0.1,0C26.6,25.9,26.5,25.9,26.5,25.9
						C26.5,25.9,26.5,25.9,26.5,25.9z M26.6,25.8C26.6,25.7,26.6,25.7,26.6,25.8c0.1-0.1,0.1,0,0.1,0C26.7,25.8,26.7,25.8,26.6,25.8
						C26.6,25.8,26.6,25.8,26.6,25.8z M26.8,25.7C26.8,25.7,26.8,25.7,26.8,25.7c0.1-0.1,0.1,0,0.1,0C26.9,25.7,26.9,25.8,26.8,25.7
						C26.8,25.8,26.8,25.7,26.8,25.7z M26.9,25.7C26.9,25.7,27,25.7,26.9,25.7c0.1-0.1,0.1,0,0.1,0C27,25.7,27,25.8,26.9,25.7
						C27,25.8,26.9,25.7,26.9,25.7z"/>
					<path class="st34" d="M26,26.4c0,0,0-0.1,0-0.1c0-0.2,0.2-0.3,0.3-0.3c0.1,0,0.1,0,0.2,0"/>
					<path class="st35" d="M26.6,26.2c0,0,0-0.1,0-0.1c0-0.1,0.1-0.2,0.3-0.2c0.1,0,0.1,0,0.2,0.1"/>
					<path class="st33" d="M25.8,26.3C25.8,26.2,25.9,26.2,25.8,26.3c0.1,0,0.1,0,0.1,0C26,26.3,25.9,26.3,25.8,26.3
						C25.9,26.3,25.8,26.3,25.8,26.3z M25.9,26.1C25.9,26,25.9,26,25.9,26.1c0.1-0.1,0.1,0,0.1,0C26,26.1,26,26.1,25.9,26.1
						C25.9,26.1,25.9,26.1,25.9,26.1z M26,25.9C26,25.9,26,25.9,26,25.9c0.1-0.1,0.1,0,0.1,0C26.1,25.9,26.1,26,26,25.9
						C26,26,26,25.9,26,25.9z M26.2,25.8C26.2,25.8,26.2,25.8,26.2,25.8c0.1,0,0.1,0,0.1,0C26.3,25.9,26.2,25.9,26.2,25.8
						C26.2,25.9,26.2,25.9,26.2,25.8z M26.3,25.8C26.3,25.8,26.3,25.8,26.3,25.8c0.1-0.1,0.1,0,0.1,0C26.4,25.9,26.4,25.9,26.3,25.8
						C26.3,25.9,26.3,25.9,26.3,25.8z"/>
					<g>
						<polygon class="st29" points="26.8,26.3 26.7,26.3 26.7,26.2 26.6,26.1 26.5,26.2 26.6,26.3 26.4,26.3 26.4,26.4 26.5,26.5 
							26.6,26.4 26.7,26.4 26.8,26.4 26.9,26.3 						"/>
						<polygon class="st29" points="26.1,26.5 26,26.5 26.1,26.5 26.2,26.5 26.3,26.4 26.2,26.4 						"/>
						<g>
							<polygon class="st29" points="27.3,26.3 27.4,26.1 27.2,26.1 27.2,26.1 27.2,26.3 27.1,26.2 27,26.3 27.1,26.4 27.2,26.3 
								27.3,26.3 27.4,26.4 27.5,26.3 27.4,26.2 							"/>
							<polygon class="st29" points="28.1,26.3 27.9,26.3 28,26.2 27.9,26.1 27.8,26.2 27.9,26.3 27.7,26.3 27.7,26.3 27.7,26.4 
								27.8,26.4 27.9,26.4 28,26.5 28.1,26.4 							"/>
						</g>
						<polygon class="st29" points="28.3,26.4 28.2,26.4 28.2,26.5 28.4,26.5 28.4,26.5 28.4,26.5 						"/>
						<path class="st29" d="M26,26.4L26,26.4C26,26.4,26,26.4,26,26.4c-0.1,0-0.1,0-0.1,0C25.9,26.4,25.9,26.4,26,26.4
							c0,0.1,0,0.2,0,0.2c0,0,0,0,0,0S26,26.4,26,26.4C26,26.4,26,26.4,26,26.4z"/>
						<path class="st29" d="M28.5,26.4C28.5,26.4,28.5,26.4,28.5,26.4L28.5,26.4c-0.1,0-0.1,0-0.1,0c0,0,0,0.1,0,0.1s0,0,0,0
							C28.5,26.5,28.5,26.5,28.5,26.4C28.6,26.4,28.6,26.4,28.5,26.4C28.6,26.4,28.6,26.4,28.5,26.4z"/>
					</g>
					<path class="st29" d="M26.6,26.4C26.6,26.3,26.6,26.3,26.6,26.4c0.1-0.1,0.1,0,0.1,0C26.7,26.4,26.7,26.4,26.6,26.4
						C26.6,26.4,26.6,26.4,26.6,26.4"/>
					<path class="st29" d="M27.2,26.3C27.2,26.3,27.2,26.3,27.2,26.3c0.1-0.1,0.1,0,0.1,0C27.3,26.3,27.3,26.4,27.2,26.3
						C27.2,26.4,27.2,26.3,27.2,26.3"/>
					<path class="st29" d="M27.8,26.4C27.8,26.3,27.8,26.3,27.8,26.4c0.1-0.1,0.1,0,0.1,0C27.9,26.4,27.9,26.4,27.8,26.4
						C27.8,26.4,27.8,26.4,27.8,26.4"/>
					<g>
						<g>
							<polygon class="st28" points="26,26.6 26,26.6 26.1,26.5 26.1,26.5 26.1,26.6 							"/>
							<path class="st32" d="M26.1,26.5C26.1,26.5,26.1,26.5,26.1,26.5C26.1,26.5,26.1,26.6,26.1,26.5
								C26.1,26.6,26.1,26.6,26.1,26.5C26.1,26.6,26.1,26.6,26.1,26.5C26,26.5,26,26.5,26.1,26.5C26,26.5,26,26.5,26.1,26.5
								 M26.1,26.5C26,26.5,26,26.5,26.1,26.5C26,26.5,26,26.5,26.1,26.5c-0.1,0.1,0,0.1,0,0.1c0,0,0,0,0.1,0c0,0,0,0,0,0
								C26.1,26.6,26.1,26.6,26.1,26.5C26.1,26.5,26.1,26.5,26.1,26.5C26.1,26.5,26.1,26.5,26.1,26.5L26.1,26.5z"/>
						</g>
					</g>
					<g>
						<g>
							<polygon class="st28" points="28.4,26.6 28.4,26.5 28.5,26.6 28.4,26.6 							"/>
							<path class="st32" d="M28.4,26.5C28.4,26.5,28.5,26.5,28.4,26.5C28.5,26.5,28.5,26.5,28.4,26.5
								C28.4,26.6,28.4,26.6,28.4,26.5C28.4,26.6,28.4,26.6,28.4,26.5C28.4,26.6,28.4,26.5,28.4,26.5C28.4,26.5,28.4,26.5,28.4,26.5
								 M28.4,26.5C28.4,26.5,28.4,26.5,28.4,26.5C28.4,26.5,28.3,26.5,28.4,26.5c-0.1,0.1-0.1,0.1-0.1,0.1c0,0,0,0,0,0
								c0,0,0,0,0.1,0C28.5,26.6,28.5,26.5,28.4,26.5C28.5,26.5,28.5,26.5,28.4,26.5C28.5,26.5,28.5,26.5,28.4,26.5L28.4,26.5z"/>
						</g>
					</g>
				</g>
				<g>
					<path class="st27" d="M10.3,26.7c0,0,0.2-0.1,0.2-0.2c0.5-0.4-0.1-0.7-0.3-0.6c-0.2-0.1-0.5-0.2-0.8-0.1
						c-0.3-0.1-0.7,0-0.8,0.1c-0.2-0.1-0.8,0.3-0.3,0.6c0.1,0.1,0.2,0.2,0.2,0.2H10.3z"/>
					<path class="st29" d="M9.4,26.7H8.8l-0.1-0.5c-0.2-0.2-0.3-0.3-0.4-0.3c0,0,0-0.1,0.1-0.1c0.1-0.1,0.4,0.1,0.7,0.4
						c0,0,0,0.1,0.1,0.1l0.5,0c0,0,0-0.1,0.1-0.1c0.2-0.3,0.5-0.5,0.7-0.5c0,0,0,0,0.1,0.1c0,0-0.2,0.1-0.4,0.3L10,26.7H9.4
						L9.4,26.7z"/>
					<path class="st35" d="M8.4,25.9C8.5,25.8,8.8,26,9,26.3"/>
					<path class="st35" d="M10.4,25.9c-0.1-0.1-0.4,0.2-0.6,0.5"/>
					<path class="st29" d="M9.2,25.9c0-0.2,0.1-0.3,0.2-0.3s0.2,0.1,0.2,0.3s-0.1,0.3-0.2,0.3S9.2,26.1,9.2,25.9z"/>
					<path class="st29" d="M9.3,25.9c0-0.2,0-0.3,0.1-0.3c0,0,0.1,0.1,0.1,0.3c0,0.2,0,0.3-0.1,0.3C9.4,26.2,9.3,26.1,9.3,25.9z"/>
					<path class="st29" d="M9.3,25.6c0-0.1,0-0.1,0.1-0.1c0.1,0,0.1,0,0.1,0.1s0,0.1-0.1,0.1C9.3,25.7,9.3,25.6,9.3,25.6"/>
					<path class="st36" d="M9.6,25.6L9.6,25.6l-0.3,0.1v-0.1h0.1v-0.2H9.3v-0.1h0.1v-0.1h0.1v0.1h0.1v0.1H9.4v0.2H9.6z"/>
					<path class="st28" d="M10.3,26.7l-0.9-0.2l-0.9,0.2l0,0.1c0.2-0.1,0.5-0.1,0.9-0.1C9.8,26.6,10.1,26.7,10.3,26.7L10.3,26.7"/>
					<g id="Layer_5_1_">
						<path class="st29" d="M8.6,26.9c0-0.1-0.1-0.1-0.1-0.1c0.2-0.1,0.6-0.1,0.9-0.1c0.4,0,0.7,0,0.9,0.1c0,0,0,0-0.1,0.1
							c0,0,0,0.1,0,0.1c-0.2-0.1-0.5-0.1-0.8-0.1C9.1,26.9,8.7,26.9,8.6,26.9C8.6,27,8.6,27,8.6,26.9L8.6,26.9"/>
						<path class="st28" d="M9.4,27.2c0.3,0,0.6,0,0.7-0.1c0.1,0,0.1-0.1,0.1-0.1c0,0,0,0,0,0c-0.2-0.1-0.5-0.1-0.8-0.1
							c-0.3,0-0.6,0-0.8,0.1c0,0,0,0,0,0c0,0,0,0.1,0.1,0.1C8.8,27.2,9.1,27.2,9.4,27.2"/>
						<path class="st35" d="M9.4,27.2c0.3,0,0.6,0,0.7-0.1c0.1,0,0.1-0.1,0.1-0.1c0,0,0,0,0,0c-0.2-0.1-0.5-0.1-0.8-0.1
							c-0.3,0-0.6,0-0.8,0.1c0,0,0,0,0,0c0,0,0,0.1,0.1,0.1C8.8,27.2,9.1,27.2,9.4,27.2z"/>
						<path class="st35" d="M10.3,26.7L10.3,26.7c-0.1-0.1-0.1,0-0.2,0c-0.1,0-0.1-0.1-0.1-0.1s-0.1,0.1-0.2,0.1
							c-0.1,0-0.1-0.1-0.1-0.1s-0.1,0.1-0.2,0.1c-0.1,0-0.1-0.1-0.1-0.1s-0.1,0.1-0.2,0.1c-0.1,0-0.1-0.1-0.1-0.1s0,0.1-0.1,0.1
							c-0.1,0-0.2-0.1-0.2-0.1s-0.1,0.1-0.1,0.1c-0.1,0-0.1,0-0.1,0s0,0,0,0.1c0,0,0,0,0,0l0,0.1c0.2-0.1,0.5-0.1,0.9-0.1
							C9.8,26.6,10.1,26.7,10.3,26.7L10.3,26.7L10.3,26.7L10.3,26.7z"/>
						<path class="st29" d="M9.4,26.4L9.4,26.4C9.4,26.4,9.4,26.4,9.4,26.4c0,0.1,0.1,0.2,0.2,0.2c0.1,0,0.1,0,0.1-0.1c0,0,0,0,0,0
							c0,0,0,0,0,0c0,0.1,0.1,0.1,0.1,0.1c0.1,0,0.1-0.1,0.1-0.1c0,0,0,0,0,0l0,0l0,0.1c0,0,0,0,0,0.1c0,0.1,0.1,0.1,0.1,0.1
							c0,0,0.1,0,0.1-0.1l0,0v0c0,0,0,0.1,0.1,0.1c0,0,0,0,0.1,0c0.1,0,0.1-0.1,0.1-0.1l0,0c0,0-0.1,0.1-0.1,0.1c0,0-0.1,0-0.1,0
							c0,0-0.1,0-0.1-0.1c0,0-0.1,0-0.1,0c-0.1,0-0.1,0-0.2-0.1c0,0-0.1,0.1-0.1,0.1c-0.1,0-0.1,0-0.2-0.1c0,0-0.1,0.1-0.1,0.1
							c-0.1,0-0.1,0-0.2-0.1c0,0-0.1,0.1-0.2,0.1c0,0-0.1,0-0.1-0.1c0,0-0.1,0.1-0.1,0.1c-0.1,0-0.1,0-0.1-0.1
							c0,0.1-0.1,0.1-0.2,0.1c0,0-0.1,0-0.1,0c0,0,0,0.1-0.1,0.1c0,0-0.1,0-0.1,0c-0.1,0-0.1-0.1-0.1-0.1l0,0c0,0,0,0,0.1,0.1
							c0.1,0,0.1,0,0.1,0c0,0,0.1,0,0.1-0.1l0,0c0,0,0.1,0.1,0.1,0.1c0.1,0,0.1-0.1,0.1-0.1c0,0,0,0,0-0.1l0-0.1l0,0c0,0,0,0,0,0
							c0,0.1,0.1,0.1,0.1,0.1c0.1,0,0.1,0,0.1-0.1c0,0,0,0,0,0c0,0,0,0,0,0c0,0,0.1,0.1,0.1,0.1C9.3,26.5,9.4,26.5,9.4,26.4
							C9.4,26.4,9.4,26.4,9.4,26.4L9.4,26.4L9.4,26.4L9.4,26.4z"/>
						<path class="st37" d="M9.4,26.7c-0.4,0-0.7,0-0.9,0.1c0,0,0,0,0,0c0,0,0,0,0,0C8.7,26.7,9,26.6,9.4,26.7
							c0.4-0.1,0.7,0,0.9,0.1c0,0,0,0,0,0c0,0,0,0,0,0C10.1,26.7,9.8,26.7,9.4,26.7z"/>
						<path class="st30" d="M9.1,26.8C9.1,26.8,9.1,26.8,9.1,26.8c0.1,0,0.1,0,0.1,0C9.2,26.8,9.1,26.9,9.1,26.8
							C9.1,26.9,9.1,26.8,9.1,26.8z"/>
						<path class="st27" d="M9.4,26.8H9.3c0,0,0,0,0,0c0,0,0,0,0,0h0.2c0,0,0,0,0,0c0,0,0,0,0,0H9.4"/>
						<path class="st38" d="M8.8,26.9L8.8,26.9c-0.1,0-0.1,0-0.1,0C8.7,26.8,8.7,26.8,8.8,26.9L8.8,26.9L8.8,26.9
							c0.1-0.1,0.1-0.1,0.1-0.1C8.9,26.8,8.9,26.9,8.8,26.9L8.8,26.9"/>
						<path class="st35" d="M8.8,26.9L8.8,26.9c-0.1,0-0.1,0-0.1,0C8.7,26.8,8.7,26.8,8.8,26.9L8.8,26.9L8.8,26.9
							c0.1-0.1,0.1-0.1,0.1-0.1C8.9,26.8,8.9,26.9,8.8,26.9L8.8,26.9"/>
						<path class="st27" d="M8.5,26.9L8.5,26.9l0.1,0L8.5,26.9L8.5,26.9z"/>
						<path class="st30" d="M9.6,26.8C9.6,26.8,9.7,26.8,9.6,26.8c0.1,0,0.1,0,0.1,0C9.8,26.8,9.7,26.9,9.6,26.8
							C9.7,26.9,9.6,26.8,9.6,26.8z"/>
						<path class="st31" d="M10.1,26.9C10.1,26.9,10.1,26.9,10.1,26.9C10.1,26.8,10.1,26.8,10.1,26.9l-0.2-0.1c0,0,0,0,0,0
							c0,0,0,0,0,0L10.1,26.9z"/>
						<path class="st27" d="M10.3,26.9L10.3,26.9l-0.1-0.1L10.3,26.9L10.3,26.9z"/>
						<path class="st39" d="M9.4,27.2c-0.3,0-0.6,0-0.8-0.1C8.8,27,9.1,27,9.4,27c0.3,0,0.6,0,0.8,0.1C10,27.1,9.7,27.2,9.4,27.2z"
							/>
						<g>
							<g>
								<g>
									<polygon class="st28" points="10.3,26.6 10.3,26.5 10.3,26.6 									"/>
									<path class="st32" d="M10.3,26.5C10.3,26.5,10.3,26.5,10.3,26.5C10.3,26.5,10.3,26.5,10.3,26.5
										C10.3,26.5,10.3,26.6,10.3,26.5C10.3,26.6,10.3,26.6,10.3,26.5C10.3,26.5,10.3,26.5,10.3,26.5
										C10.3,26.5,10.3,26.5,10.3,26.5 M10.3,26.4C10.3,26.4,10.2,26.5,10.3,26.4c-0.1,0.1-0.1,0.1-0.1,0.1c0,0,0,0,0,0l0,0l0,0
										C10.3,26.6,10.3,26.6,10.3,26.4C10.4,26.5,10.4,26.5,10.3,26.4L10.3,26.4L10.3,26.4L10.3,26.4L10.3,26.4L10.3,26.4z"/>
								</g>
							</g>
							<g>
								<g>
									<polygon class="st28" points="9.7,26.5 9.7,26.4 9.7,26.5 									"/>
									<path class="st32" d="M9.7,26.4C9.7,26.4,9.7,26.4,9.7,26.4C9.7,26.4,9.7,26.4,9.7,26.4C9.7,26.4,9.7,26.4,9.7,26.4
										C9.7,26.4,9.7,26.4,9.7,26.4C9.7,26.4,9.7,26.4,9.7,26.4C9.7,26.4,9.7,26.4,9.7,26.4 M9.7,26.3C9.7,26.3,9.7,26.4,9.7,26.3
										c-0.1,0.1-0.1,0.1,0,0.1c0,0,0,0,0,0c0,0,0,0,0,0C9.7,26.5,9.8,26.5,9.7,26.3C9.8,26.4,9.8,26.3,9.7,26.3L9.7,26.3
										L9.7,26.3L9.7,26.3z"/>
								</g>
							</g>
							<g>
								<g>
									<polygon class="st28" points="9.1,26.5 9.1,26.4 9.1,26.5 									"/>
									<path class="st32" d="M9.1,26.4C9.1,26.4,9.1,26.4,9.1,26.4C9.1,26.4,9.1,26.4,9.1,26.4C9.1,26.4,9.1,26.4,9.1,26.4
										C9.1,26.4,9.1,26.4,9.1,26.4C9.1,26.4,9.1,26.4,9.1,26.4C9.1,26.4,9.1,26.4,9.1,26.4 M9.1,26.3L9.1,26.3L9.1,26.3
										C9.1,26.3,9,26.4,9.1,26.3c-0.1,0.1,0,0.1,0,0.1h0l0,0c0,0,0,0,0,0c0,0,0,0,0,0C9.2,26.4,9.2,26.4,9.1,26.3
										C9.2,26.4,9.1,26.3,9.1,26.3L9.1,26.3z"/>
								</g>
							</g>
							<g>
								<g>
									<polygon class="st28" points="8.5,26.6 8.5,26.5 8.5,26.6 									"/>
									<path class="st32" d="M8.5,26.5C8.5,26.5,8.5,26.5,8.5,26.5C8.6,26.5,8.5,26.5,8.5,26.5C8.5,26.6,8.5,26.6,8.5,26.5
										C8.5,26.6,8.5,26.5,8.5,26.5C8.5,26.5,8.5,26.5,8.5,26.5C8.5,26.5,8.5,26.5,8.5,26.5 M8.5,26.4L8.5,26.4L8.5,26.4
										C8.5,26.5,8.4,26.5,8.5,26.4c0,0.1,0,0.1,0,0.1h0l0,0c0,0,0,0,0,0C8.6,26.5,8.6,26.5,8.5,26.4C8.6,26.5,8.5,26.4,8.5,26.4
										L8.5,26.4z"/>
								</g>
							</g>
						</g>
						<path class="st29" d="M9.4,26.1l-0.1,0.1l0.1,0.2h0.1l0.1-0.2L9.4,26.1z"/>
						<path class="st29" d="M9.2,26.3L9.2,26.3l0.2,0v0L9.2,26.3L9.2,26.3z"/>
						<path class="st29" d="M9.6,26.3L9.6,26.3l-0.2,0v0L9.6,26.3L9.6,26.3z"/>
						<path class="st29" d="M8.7,26.1L8.7,26.1l0,0.2l0,0l0-0.2L8.7,26.1z"/>
						<path class="st29" d="M8.6,26.4L8.6,26.4l0.2,0l0,0L8.6,26.4L8.6,26.4z"/>
						<path class="st29" d="M9,26.3L9,26.3l-0.2,0.1l0,0L9,26.3L9,26.3z"/>
						<path class="st29" d="M8.4,26.4L8.4,26.4l-0.2,0.1l0,0L8.4,26.4L8.4,26.4z"/>
						<path class="st28" d="M8.7,26.4C8.7,26.3,8.8,26.3,8.7,26.4c0.1-0.1,0.1,0,0.1,0C8.8,26.4,8.8,26.4,8.7,26.4
							C8.8,26.4,8.7,26.4,8.7,26.4"/>
						<path class="st35" d="M8.7,26.4C8.7,26.3,8.8,26.3,8.7,26.4c0.1-0.1,0.1,0,0.1,0C8.8,26.4,8.8,26.4,8.7,26.4
							C8.8,26.4,8.7,26.4,8.7,26.4z"/>
						<path class="st29" d="M10.1,26.1L10.1,26.1l0,0.2l0,0l0-0.2L10.1,26.1z"/>
						<path class="st29" d="M10.2,26.4L10.2,26.4l-0.2,0l0,0L10.2,26.4L10.2,26.4z"/>
						<path class="st29" d="M9.8,26.3L9.8,26.3l0.2,0.1l0,0L9.8,26.3L9.8,26.3z"/>
						<path class="st29" d="M10.4,26.4L10.4,26.4l0.2,0.1l0,0L10.4,26.4L10.4,26.4z"/>
						<path class="st29" d="M9.3,26.3C9.3,26.3,9.4,26.3,9.3,26.3c0.1-0.1,0.1,0,0.1,0C9.5,26.4,9.4,26.4,9.3,26.3
							C9.4,26.4,9.3,26.4,9.3,26.3z"/>
						<path class="st29" d="M10,26.4C10,26.3,10,26.3,10,26.4c0.1-0.1,0.1,0,0.1,0C10.1,26.4,10.1,26.4,10,26.4
							C10,26.4,10,26.4,10,26.4z"/>
						<path class="st29" d="M8.2,26.5C8.2,26.5,8.1,26.5,8.2,26.5C8.1,26.4,8,26.4,8,26.4c0,0,0,0,0.1,0c0,0,0,0,0.1,0l0,0
							c0,0,0,0,0,0C8.2,26.4,8.2,26.5,8.2,26.5C8.2,26.5,8.2,26.5,8.2,26.5L8.2,26.5z"/>
						<g>
							<g>
								<polygon class="st28" points="8.2,26.6 8.2,26.6 8.2,26.5 8.3,26.5 8.2,26.6 								"/>
								<path class="st32" d="M8.2,26.5C8.2,26.5,8.2,26.5,8.2,26.5C8.3,26.5,8.3,26.6,8.2,26.5C8.3,26.6,8.2,26.6,8.2,26.5
									C8.2,26.6,8.2,26.6,8.2,26.5C8.2,26.5,8.2,26.5,8.2,26.5C8.2,26.5,8.2,26.5,8.2,26.5 M8.2,26.5C8.2,26.5,8.2,26.5,8.2,26.5
									C8.1,26.5,8.1,26.5,8.2,26.5c-0.1,0.1,0,0.1,0,0.1c0,0,0,0,0.1,0c0,0,0,0,0,0C8.3,26.6,8.3,26.6,8.2,26.5
									C8.3,26.5,8.3,26.5,8.2,26.5C8.3,26.5,8.2,26.5,8.2,26.5L8.2,26.5z"/>
							</g>
						</g>
						<path class="st29" d="M10.6,26.5C10.6,26.5,10.7,26.5,10.6,26.5c0.1-0.1,0.2-0.1,0.2-0.1c0,0,0,0-0.1,0c0,0,0,0-0.1,0l0,0
							c0,0,0,0,0,0C10.6,26.4,10.6,26.5,10.6,26.5C10.6,26.5,10.6,26.5,10.6,26.5L10.6,26.5z"/>
						<g>
							<g>
								<polygon class="st28" points="10.5,26.6 10.6,26.5 10.6,26.5 10.6,26.6 10.6,26.6 								"/>
								<path class="st32" d="M10.6,26.5C10.6,26.5,10.6,26.5,10.6,26.5C10.6,26.5,10.6,26.5,10.6,26.5
									C10.6,26.6,10.6,26.6,10.6,26.5C10.5,26.6,10.5,26.6,10.6,26.5C10.5,26.6,10.5,26.5,10.6,26.5
									C10.6,26.5,10.6,26.5,10.6,26.5 M10.6,26.5C10.6,26.5,10.5,26.5,10.6,26.5c-0.1,0.1-0.1,0.1-0.1,0.1c0,0,0,0,0,0
									c0,0,0,0,0.1,0C10.6,26.6,10.7,26.5,10.6,26.5C10.6,26.5,10.6,26.5,10.6,26.5L10.6,26.5z"/>
							</g>
						</g>
						<path class="st29" d="M8.8,26.4"/>
					</g>
				</g>
				<path class="st5" d="M8.4,38.2h1.9v-9.5H8.4V38.2z"/>
				<path class="st40" d="M9.8,28.7v9.5 M10,28.7v9.5"/>
				<path class="st3" d="M7.8,35.8c-0.3,0.2-0.5,0.3-0.4,0.4c0,0.1,0.1,0.1,0.2,0.2c0.2,0.1,0.3,0.4,0.2,0.5
					c0.2-0.1,0.3-0.3,0.3-0.5C8.1,36.2,8,36,7.8,35.8"/>
				<path class="st3" d="M12.4,32.2c-0.4-0.2-1.1-0.3-2-0.3c-0.3,0-0.6,0-0.9,0.1c-1.2,0.2-2.1,0.7-2,1c0,0,0,0,0,0c0,0-0.4-1-0.4-1
					c-0.1-0.4,0.9-0.9,2.2-1.2c0.4-0.1,0.8-0.1,1.1-0.1c0.8,0,1.5,0.1,2,0.3L12.4,32.2"/>
				<path class="st3" d="M8.4,33.4c-0.5,0-0.9-0.2-0.9-0.4c0-0.2,0.1-0.4,0.5-0.6c0.1,0,0.3,0,0.5,0L8.4,33.4"/>
				<path class="st3" d="M10.4,32.7c0.3,0.1,0.6,0.1,0.7,0.2l0,0c0.1,0.1-0.2,0.4-0.7,0.7L10.4,32.7"/>
				<path class="st3" d="M7.2,35.3c-0.1-0.2,0.5-0.5,1.2-0.7c0.3-0.1,0.6-0.2,1-0.4c1-0.5,1.8-1,1.7-1.2l0,0c0.1,0,0.1,1,0.1,1
					c0.1,0.2-0.6,0.7-1.6,1.1c-0.3,0.1-0.9,0.4-1.3,0.5c-0.5,0.2-1.1,0.5-1,0.7L7.2,35.3"/>
				<path class="st28" d="M8.3,31.8c0.2-0.1,0.4-0.2,0.3-0.4c0-0.1-0.2-0.1-0.4-0.1l-0.3,0.1l0.3,0.7c0,0,0.1,0,0.1,0
					c0,0,0.1,0,0.1,0L8.3,31.8L8.3,31.8L8.3,31.8z M8.2,31.4L8.2,31.4c0.1-0.1,0.2,0,0.3,0.1c0,0.1,0,0.1-0.1,0.2c0,0-0.1,0-0.1,0
					L8.2,31.4"/>
				<path class="st28" d="M9.1,31.1c0,0-0.1,0-0.1,0c0,0-0.1,0-0.1,0L9,31.9l0.5-0.1c0,0,0,0,0,0c0,0,0,0,0,0
					c-0.1,0-0.2,0.1-0.3,0.1L9.1,31.1"/>
				<path class="st28" d="M10.1,31.8c0.1-0.3,0.2-0.5,0.3-0.8c0,0,0,0-0.1,0c0,0,0,0-0.1,0c-0.1,0.2-0.1,0.4-0.2,0.6
					C10,31.4,9.9,31.2,9.8,31c0,0-0.1,0-0.1,0c0,0-0.1,0-0.1,0c0.2,0.2,0.3,0.5,0.4,0.7C10,31.8,10,31.8,10.1,31.8
					C10.1,31.8,10.1,31.8,10.1,31.8"/>
				<path class="st28" d="M11.2,31.2c0,0,0-0.1,0.1-0.1c0,0-0.1-0.1-0.2-0.1c-0.2,0-0.3,0.1-0.4,0.2c0,0.3,0.4,0.2,0.4,0.4
					c0,0.1-0.1,0.1-0.2,0.1c-0.1,0-0.2-0.1-0.2-0.1h0c0,0,0,0.1-0.1,0.1c0.1,0,0.1,0.1,0.2,0.1c0.2,0,0.4-0.1,0.4-0.2
					c0-0.3-0.4-0.3-0.4-0.4c0-0.1,0.1-0.1,0.2-0.1C11.1,31.1,11.2,31.1,11.2,31.2L11.2,31.2"/>
				<path class="st6" d="M11.3,39.7c-0.2,0-0.3,0-0.5-0.1c-0.1-0.1-0.3-0.1-0.5-0.1c-0.2,0-0.3,0-0.5,0.1c-0.1,0.1-0.3,0.1-0.5,0.1
					c-0.2,0-0.4,0-0.5-0.1c-0.1-0.1-0.3-0.1-0.5-0.1c-0.2,0-0.3,0-0.5,0.1c-0.1,0.1-0.3,0.1-0.5,0.1V40c0.2,0,0.3,0,0.5-0.1
					c0.1-0.1,0.3-0.1,0.5-0.1c0.2,0,0.3,0,0.5,0.1C9.1,39.9,9.2,40,9.4,40c0.2,0,0.3,0,0.5-0.1c0.1-0.1,0.3-0.1,0.5-0.1
					c0.2,0,0.3,0,0.5,0.1c0.1,0.1,0.3,0.1,0.5,0.1L11.3,39.7"/>
				<path class="st5" d="M11.3,40c-0.2,0-0.3,0-0.5-0.1c-0.1-0.1-0.3-0.1-0.5-0.1c-0.2,0-0.3,0-0.5,0.1C9.8,39.9,9.6,40,9.4,40
					c-0.2,0-0.4,0-0.5-0.1c-0.1-0.1-0.3-0.1-0.5-0.1c-0.2,0-0.3,0-0.5,0.1C7.9,39.9,7.7,40,7.5,40v0.3c0.2,0,0.3,0,0.5-0.1
					c0.1-0.1,0.3-0.1,0.5-0.1c0.2,0,0.3,0,0.5,0.1c0.1,0.1,0.3,0.1,0.5,0.1c0.2,0,0.3,0,0.5-0.1c0.1-0.1,0.3-0.1,0.5-0.1
					c0.2,0,0.3,0,0.5,0.1c0.1,0.1,0.3,0.1,0.5,0.1L11.3,40"/>
				<path class="st6" d="M11.3,40.3c-0.2,0-0.3,0-0.5-0.1c-0.1-0.1-0.3-0.1-0.5-0.1c-0.2,0-0.3,0-0.5,0.1c-0.1,0.1-0.3,0.1-0.5,0.1
					c-0.2,0-0.4,0-0.5-0.1c-0.1-0.1-0.3-0.1-0.5-0.1c-0.2,0-0.3,0-0.5,0.1c-0.1,0.1-0.3,0.1-0.5,0.1v0.3c0.2,0,0.3,0,0.5-0.1
					c0.1-0.1,0.3-0.1,0.5-0.1c0.2,0,0.3,0,0.5,0.1c0.1,0.1,0.3,0.1,0.5,0.1c0.2,0,0.3,0,0.5-0.1c0.1-0.1,0.3-0.1,0.5-0.1
					c0.2,0,0.3,0,0.5,0.1c0.1,0.1,0.3,0.1,0.5,0.1L11.3,40.3"/>
				<path class="st5" d="M11.3,40.8c-0.2,0-0.3,0-0.5-0.1c-0.1-0.1-0.3-0.1-0.5-0.1c-0.2,0-0.3,0-0.5,0.1c-0.1,0.1-0.3,0.1-0.5,0.1
					c-0.2,0-0.4,0-0.5-0.1c-0.1-0.1-0.3-0.1-0.5-0.1c-0.2,0-0.3,0-0.5,0.1c-0.1,0.1-0.3,0.1-0.5,0.1v-0.3c0.2,0,0.3,0,0.5-0.1
					c0.1-0.1,0.3-0.1,0.5-0.1c0.2,0,0.3,0,0.5,0.1c0.1,0.1,0.3,0.1,0.5,0.1c0.2,0,0.3,0,0.5-0.1c0.1-0.1,0.3-0.1,0.5-0.1
					c0.2,0,0.3,0,0.5,0.1c0.1,0.1,0.3,0.1,0.5,0.1L11.3,40.8"/>
				<path class="st6" d="M11.3,41.1c-0.2,0-0.3,0-0.5-0.1c-0.1-0.1-0.3-0.1-0.5-0.1c-0.2,0-0.3,0-0.5,0.1c-0.1,0.1-0.3,0.1-0.5,0.1
					c-0.2,0-0.4,0-0.5-0.1c-0.1-0.1-0.3-0.1-0.5-0.1c-0.2,0-0.3,0-0.5,0.1c-0.1,0.1-0.3,0.1-0.5,0.1v-0.3c0.2,0,0.3,0,0.5-0.1
					c0.1-0.1,0.3-0.1,0.5-0.1c0.2,0,0.3,0,0.5,0.1c0.1,0.1,0.3,0.1,0.5,0.1c0.2,0,0.3,0,0.5-0.1c0.1-0.1,0.3-0.1,0.5-0.1
					c0.2,0,0.3,0,0.5,0.1c0.1,0.1,0.3,0.1,0.5,0.1L11.3,41.1"/>
				<path class="st4" d="M8.4,38.5C8.4,38.5,8.4,38.6,8.4,38.5c0,0.2-0.1,0.4-0.3,0.4h2.7c-0.2,0-0.3-0.1-0.3-0.3c0,0,0,0,0-0.1
					c0,0,0,0-0.1,0L8.4,38.5C8.4,38.5,8.4,38.5,8.4,38.5"/>
				<path class="st4" d="M8.4,38.3h2c0.1,0,0.1,0,0.1,0.1c0,0.1-0.1,0.1-0.1,0.1h-2c-0.1,0-0.1,0-0.1-0.1
					C8.3,38.4,8.3,38.3,8.4,38.3"/>
				<path class="st4" d="M8,39.6h2.7v-0.7H8V39.6z"/>
				<path class="st4" d="M8.1,27.9h2.7v-0.7H8.1V27.9L8.1,27.9z"/>
				<path class="st4" d="M8.4,28.4C8.4,28.4,8.4,28.4,8.4,28.4l2,0c0,0,0,0,0.1,0c-0.1,0-0.1-0.1-0.1-0.2c0-0.1,0.1-0.1,0.1-0.2
					c0,0,0,0-0.1,0h-2c0,0,0,0-0.1,0l0,0c0.1,0,0.1,0.1,0.1,0.2C8.5,28.3,8.4,28.4,8.4,28.4"/>
				<path class="st4" d="M8.4,28.4h2c0.1,0,0.1,0,0.1,0.1c0,0.1-0.1,0.1-0.1,0.1h-2c-0.1,0-0.1,0-0.1-0.1
					C8.3,28.4,8.3,28.4,8.4,28.4"/>
				<path class="st4" d="M8.4,27.9h2c0.1,0,0.1,0,0.1,0.1c0,0-0.1,0.1-0.1,0.1h-2c-0.1,0-0.1,0-0.1-0.1C8.3,28,8.3,27.9,8.4,27.9"/>
				<path class="st4" d="M25.9,27.9h2.7v-0.7h-2.7V27.9z"/>
				<path class="st4" d="M28.3,28.4C28.3,28.4,28.3,28.4,28.3,28.4l-2,0c0,0,0,0-0.1,0c0.1,0,0.1-0.1,0.1-0.2c0-0.1-0.1-0.1-0.1-0.2
					c0,0,0,0,0.1,0h2c0,0,0,0,0.1,0l0,0c-0.1,0-0.1,0.1-0.1,0.2C28.2,28.3,28.2,28.4,28.3,28.4"/>
				<path class="st4" d="M26.3,28.4h2c0.1,0,0.1,0,0.1,0.1c0,0.1-0.1,0.1-0.1,0.1h-2c-0.1,0-0.1,0-0.1-0.1
					C26.1,28.4,26.2,28.4,26.3,28.4"/>
				<path class="st4" d="M26.3,27.9h2c0.1,0,0.1,0,0.1,0.1c0,0-0.1,0.1-0.1,0.1h-2c-0.1,0-0.1,0-0.1-0.1
					C26.1,28,26.2,27.9,26.3,27.9"/>
				<path class="st6" d="M25.4,39.7c0.2,0,0.3,0,0.5-0.1c0.1-0.1,0.3-0.1,0.5-0.1c0.2,0,0.3,0,0.5,0.1c0.1,0.1,0.3,0.1,0.5,0.1
					c0.2,0,0.4,0,0.5-0.1c0.1-0.1,0.3-0.1,0.5-0.1c0.2,0,0.3,0,0.5,0.1c0.1,0.1,0.3,0.1,0.5,0.1V40c-0.2,0-0.4,0-0.5-0.1
					c-0.1-0.1-0.3-0.1-0.5-0.1c-0.2,0-0.3,0-0.5,0.1c-0.1,0.1-0.3,0.1-0.5,0.1c-0.2,0-0.3,0-0.5-0.1c-0.1-0.1-0.3-0.1-0.5-0.1
					c-0.2,0-0.3,0-0.5,0.1c-0.1,0.1-0.3,0.1-0.5,0.1L25.4,39.7"/>
				<path class="st5" d="M25.4,40c0.2,0,0.3,0,0.5-0.1c0.1-0.1,0.3-0.1,0.5-0.1c0.2,0,0.3,0,0.5,0.1c0.1,0.1,0.3,0.1,0.5,0.1
					c0.2,0,0.4,0,0.5-0.1c0.1-0.1,0.3-0.1,0.5-0.1c0.2,0,0.3,0,0.5,0.1c0.1,0.1,0.3,0.1,0.5,0.1v0.3c-0.2,0-0.4,0-0.5-0.1
					c-0.1-0.1-0.3-0.1-0.5-0.1c-0.2,0-0.3,0-0.5,0.1c-0.1,0.1-0.3,0.1-0.5,0.1c-0.2,0-0.3,0-0.5-0.1c-0.1-0.1-0.3-0.1-0.5-0.1
					c-0.2,0-0.3,0-0.5,0.1c-0.1,0.1-0.3,0.1-0.5,0.1L25.4,40"/>
				<path class="st6" d="M25.4,40.3c0.2,0,0.3,0,0.5-0.1c0.1-0.1,0.3-0.1,0.5-0.1c0.2,0,0.3,0,0.5,0.1c0.1,0.1,0.3,0.1,0.5,0.1
					c0.2,0,0.4,0,0.5-0.1c0.1-0.1,0.3-0.1,0.5-0.1c0.2,0,0.3,0,0.5,0.1c0.1,0.1,0.3,0.1,0.5,0.1v0.3c-0.2,0-0.4,0-0.5-0.1
					c-0.1-0.1-0.3-0.1-0.5-0.1c-0.2,0-0.3,0-0.5,0.1c-0.1,0.1-0.3,0.1-0.5,0.1c-0.2,0-0.3,0-0.5-0.1c-0.1-0.1-0.3-0.1-0.5-0.1
					c-0.2,0-0.3,0-0.5,0.1c-0.1,0.1-0.3,0.1-0.5,0.1L25.4,40.3"/>
				<path class="st5" d="M25.4,40.8c0.2,0,0.3,0,0.5-0.1c0.1-0.1,0.3-0.1,0.5-0.1c0.2,0,0.3,0,0.5,0.1c0.1,0.1,0.3,0.1,0.5,0.1
					c0.2,0,0.4,0,0.5-0.1c0.1-0.1,0.3-0.1,0.5-0.1c0.2,0,0.3,0,0.5,0.1c0.1,0.1,0.3,0.1,0.5,0.1v-0.3c-0.2,0-0.4,0-0.5-0.1
					c-0.1-0.1-0.3-0.1-0.5-0.1c-0.2,0-0.3,0-0.5,0.1c-0.1,0.1-0.3,0.1-0.5,0.1c-0.2,0-0.3,0-0.5-0.1c-0.1-0.1-0.3-0.1-0.5-0.1
					c-0.2,0-0.3,0-0.5,0.1c-0.1,0.1-0.3,0.1-0.5,0.1L25.4,40.8"/>
				<path class="st6" d="M25.4,41.1c0.2,0,0.3,0,0.5-0.1c0.1-0.1,0.3-0.1,0.5-0.1c0.2,0,0.3,0,0.5,0.1c0.1,0.1,0.3,0.1,0.5,0.1
					c0.2,0,0.4,0,0.5-0.1c0.1-0.1,0.3-0.1,0.5-0.1c0.2,0,0.3,0,0.5,0.1c0.1,0.1,0.3,0.1,0.5,0.1v-0.3c-0.2,0-0.4,0-0.5-0.1
					c-0.1-0.1-0.3-0.1-0.5-0.1c-0.2,0-0.3,0-0.5,0.1c-0.1,0.1-0.3,0.1-0.5,0.1c-0.2,0-0.3,0-0.5-0.1c-0.1-0.1-0.3-0.1-0.5-0.1
					c-0.2,0-0.3,0-0.5,0.1c-0.1,0.1-0.3,0.1-0.5,0.1L25.4,41.1"/>
				<path class="st4" d="M28.3,38.5C28.3,38.5,28.3,38.5,28.3,38.5c0,0.2,0.1,0.4,0.3,0.4h-2.7c0.2,0,0.3-0.1,0.3-0.3c0,0,0,0,0-0.1
					c0,0,0,0,0.1,0L28.3,38.5C28.3,38.5,28.3,38.5,28.3,38.5"/>
				<path class="st4" d="M26.3,38.3h2c0.1,0,0.1,0,0.1,0.1c0,0-0.1,0.1-0.1,0.1h-2c-0.1,0-0.1,0-0.1-0.1
					C26.1,38.4,26.2,38.3,26.3,38.3"/>
				<path class="st4" d="M25.9,39.6h2.7v-0.7h-2.7V39.6z"/>
				<path class="st3" d="M28.8,35.8c0.3,0.2,0.5,0.3,0.4,0.4c0,0.1-0.1,0.1-0.2,0.2c-0.2,0.1-0.3,0.4-0.2,0.5
					c-0.2-0.1-0.3-0.3-0.3-0.5C28.6,36.2,28.7,36,28.8,35.8"/>
				<path class="st5" d="M26.3,38.2h1.9v-9.5h-1.9V38.2z"/>
				<path class="st40" d="M27.7,28.7v9.5 M27.9,28.7v9.5"/>
				<path class="st3" d="M24.3,32.2c0.4-0.2,1.1-0.3,2-0.3c0.3,0,0.6,0,0.9,0.1c1.2,0.2,2,0.7,2,1c0,0,0,0,0,0c0,0,0.4-1,0.4-1
					c0.1-0.4-0.9-0.9-2.2-1.2c-0.4-0.1-0.8-0.1-1.1-0.1c-0.8,0-1.5,0.1-2,0.3L24.3,32.2"/>
				<path class="st3" d="M28.2,33.4c0.5,0,0.9-0.2,0.9-0.4c0-0.2-0.2-0.4-0.5-0.6c-0.1,0-0.3,0-0.5,0L28.2,33.4"/>
				<path class="st3" d="M26.3,32.7c-0.3,0.1-0.6,0.1-0.7,0.2l0,0c-0.1,0.1,0.2,0.4,0.7,0.7L26.3,32.7"/>
				<path class="st3" d="M29.4,35.3c0-0.2-0.5-0.5-1.2-0.7c-0.3-0.1-0.6-0.2-1-0.4c-1-0.5-1.8-1-1.7-1.2l0,0c-0.1,0-0.1,1-0.1,1
					c-0.1,0.2,0.6,0.7,1.6,1.1c0.3,0.1,0.9,0.4,1.3,0.5c0.5,0.2,1.1,0.5,1,0.7L29.4,35.3"/>
				<path class="st28" d="M25.5,31.8c0.1-0.3,0.2-0.5,0.3-0.8c0,0,0,0-0.1,0c0,0,0,0-0.1,0c0,0.2-0.1,0.4-0.2,0.6
					c-0.1-0.2-0.2-0.3-0.3-0.5c0,0-0.1,0-0.1,0c0,0-0.1,0-0.1,0c0.2,0.2,0.3,0.5,0.5,0.7C25.4,31.8,25.4,31.8,25.5,31.8
					C25.5,31.8,25.5,31.8,25.5,31.8"/>
				<path class="st28" d="M26.3,31c0,0-0.1,0-0.1,0c0,0-0.1,0-0.1,0l0,0.8l0.5,0c0,0,0,0,0,0c0,0,0,0,0,0c-0.1,0-0.2,0-0.3,0
					L26.3,31"/>
				<path class="st28" d="M27.1,31.1c0.1,0,0.2,0,0.2,0c0,0,0,0,0,0c0,0,0,0,0,0L26.6,31c0,0,0,0,0,0c0,0,0,0,0,0c0.1,0,0.2,0,0.3,0
					l-0.1,0.7c0,0,0.1,0,0.1,0c0,0,0.1,0,0.1,0L27.1,31.1"/>
				<path class="st28" d="M27.4,31.9c0,0,0.1,0,0.1,0c0,0,0.1,0,0.1,0l0.1-0.4l0,0c0,0.1,0,0.1,0.1,0.1l0.1,0.3c0,0,0.1,0,0.1,0
					c0,0,0.1,0,0.1,0l0-0.1c-0.1-0.1-0.1-0.2-0.2-0.4c0.1,0,0.2,0,0.3-0.2c0-0.1,0-0.1-0.1-0.2c-0.1,0-0.2-0.1-0.2-0.1l-0.3-0.1
					L27.4,31.9 M27.8,31.2c0.1,0,0.2,0,0.2,0.1c0,0,0,0,0,0.1c0,0.1-0.1,0.1-0.3,0.1L27.8,31.2"/>
				<path class="st28" d="M28.8,32.1c0,0.1,0,0.2,0,0.3c0,0,0.1,0,0.1,0.1c0,0,0.1,0,0.1,0.1l0.1-0.9c0,0,0,0-0.1,0c0,0,0,0,0,0
					l-0.8,0.5c0,0,0,0,0.1,0c0,0,0,0,0.1,0c0.1-0.1,0.1-0.1,0.2-0.2L28.8,32.1L28.8,32.1z M28.6,31.9l0.3-0.2l0,0.3L28.6,31.9"/>
			</g>
			<path class="st5" d="M18.4,41.3c-1.6,0-3.1-0.4-4.4-1c-1-0.5-1.6-1.4-1.6-2.5v-4h12v4c0,1.1-0.6,2.1-1.6,2.5
				C21.4,40.9,19.9,41.3,18.4,41.3"/>
			<path class="st41" d="M18.6,39.5C18.6,39.5,18.7,39.5,18.6,39.5c0-0.1,0-0.2,0-0.2s-0.1,0-0.1,0c0,0-0.1,0.1-0.1,0.1s0,0,0-0.1
				c0,0-0.1-0.1-0.1-0.1s0,0-0.1,0.1c0,0-0.1,0.1-0.1,0.1s0,0-0.1-0.1c-0.1,0-0.1,0-0.1,0s0,0,0.1,0.1c0,0,0,0.1,0,0.1
				c-0.2,0-0.4,0.3-0.4,0.5c0,0.3,0.3,0.5,0.6,0.5c0.4,0,0.6-0.2,0.6-0.5C19,39.8,18.9,39.6,18.6,39.5z"/>
			<path class="st42" d="M17.7,40.5c-0.3-0.1-0.6,0-0.7,0c0,0,0.2,0.1,0.2,0.2c0.1,0.1,0.3,0.2,0.4,0.2c0.4,0.1,0.7,0,0.7,0
				S17.9,40.5,17.7,40.5z"/>
			<path class="st42" d="M19.1,40.5c-0.3,0-0.6,0.4-0.6,0.4s0.1,0,0.1,0c0,0,0.3,0,0.6,0c0.3,0,0.4-0.1,0.5-0.2
				c0.1,0,0.2-0.1,0.2-0.1C19.7,40.5,19.5,40.5,19.1,40.5z"/>
			<path class="st43" d="M18.4,39.6c-0.1,0.1-0.2,0.3-0.2,0.4c0,0.2,0.1,0.3,0.2,0.4c0.1-0.1,0.2-0.3,0.2-0.4
				C18.6,39.9,18.5,39.7,18.4,39.6z"/>
			<path class="st42" d="M18.4,40.5L18.4,40.5c-0.1,0-0.1,0.1-0.1,0.3c0,0.2-0.1,0.3-0.1,0.3s0.1,0,0.1,0c0,0,0.1,0,0.1,0
				s0-0.2,0-0.3C18.5,40.7,18.4,40.5,18.4,40.5z"/>
			<path class="st3" d="M18.3,27.1h-6v10.7c0,1.6,1.3,2.8,3,2.8c1.7,0,3-1.3,3-2.8L18.3,27.1z"/>
			<path class="st44" d="M20.2,38"/>
			<g>
				<path class="st4" d="M18.3,33.8h-0.7v5.8c0.4-0.5,0.7-1.1,0.7-1.8V33.8z"/>
				<path class="st4" d="M13.7,33.8v6.4c0.2,0.1,0.4,0.2,0.7,0.3v-6.7H13.7z"/>
				<path class="st4" d="M12.3,33.8v4c0,0.7,0.2,1.3,0.7,1.8v-5.8H12.3z"/>
				<path class="st4" d="M16.3,33.8v6.7c0.2-0.1,0.5-0.2,0.7-0.3v-6.4H16.3z"/>
				<path class="st4" d="M15,33.8v6.8c0.1,0,0.2,0,0.3,0s0.2,0,0.3,0v-6.8H15z"/>
			</g>
			<line class="st4" x1="17.7" y1="33.8" x2="13" y2="33.8"/>
			<path class="st5" d="M18.3,33.8h6v-6.7h-6V33.8z"/>
			<path class="st3" d="M24.4,33.8v4c0,1.6-1.3,2.8-3,2.8s-3-1.3-3-2.8v-4H24.4"/>
			<path class="st29" d="M21,37C21,37,21,37,21,37l-0.5-0.1v-0.2H21c0,0,0,0,0,0L20.4,36l0.2-0.1l0.6,0.7c0,0,0,0,0,0v-0.9h0.2v0.9
				c0,0,0,0,0,0l0.6-0.7l0.2,0.1l-0.6,0.7c0,0,0,0,0,0.1h0.5v0.2l-0.5,0c0,0,0,0,0,0.1l0.6,0.7L22,37.8l-0.6-0.7c0,0,0,0,0,0v1.1
				h-0.2v-1.1c0,0,0,0,0,0l-0.6,0.7l-0.2-0.1L21,37"/>
			<path class="st29" d="M22.1,39.4c-0.1,0.1-0.3,0.1-0.5,0.1c0-0.1-0.1-0.1-0.2-0.2v-0.8h-0.2v0.8c-0.1,0-0.2,0.1-0.2,0.2
				c-0.2,0-0.3-0.1-0.5-0.1l-0.1,0.2c0.2,0.1,0.4,0.1,0.6,0.2c0,0.1,0.2,0.2,0.3,0.2c0.2,0,0.3-0.1,0.3-0.2c0.2,0,0.4-0.1,0.5-0.2
				L22.1,39.4z M21.3,39.8c-0.1,0-0.1-0.1-0.1-0.1c0-0.1,0.1-0.1,0.1-0.1c0.1,0,0.1,0.1,0.1,0.1C21.5,39.7,21.4,39.8,21.3,39.8z"/>
			<path class="st29" d="M23.3,38.5c0.1-0.2,0.1-0.4,0.2-0.6h-0.2c0,0.2-0.1,0.4-0.1,0.5c-0.1,0-0.1,0-0.2,0l-0.5-0.6L22.2,38
				l0.5,0.6c-0.1,0.1-0.1,0.2,0,0.3c-0.1,0.1-0.2,0.2-0.4,0.3l0.1,0.2c0.2-0.1,0.3-0.2,0.5-0.4c0.1,0,0.2,0,0.3-0.1
				C23.4,38.9,23.4,38.7,23.3,38.5L23.3,38.5z M23.1,38.8c-0.1,0-0.1,0-0.2,0c0-0.1,0-0.1,0-0.2c0.1,0,0.2,0,0.2,0
				C23.2,38.7,23.2,38.8,23.1,38.8z"/>
			<path class="st29" d="M23.7,36.8c0-0.1-0.1-0.3-0.2-0.3l0-0.7h-0.2v0.7c-0.1,0-0.2,0.1-0.2,0.2h-0.5v0.2H23
				c0,0.1,0.1,0.2,0.2,0.2v0.5l0.2,0l0,0l0,0v-0.5C23.6,37.1,23.7,37,23.7,36.8z M23.3,37c-0.1,0-0.1-0.1-0.1-0.1
				c0-0.1,0.1-0.1,0.1-0.1s0.1,0.1,0.1,0.1C23.5,36.9,23.4,37,23.3,37z"/>
			<path class="st29" d="M23.3,34.3c-0.1,0-0.3,0.1-0.3,0.2h-0.6v0.2H23c0,0,0,0,0,0l-0.8,0.9l0.2,0.1l0.7-0.8c0,0,0,0,0,0v0.7h0.2
				l0-0.6c0.1,0,0.2-0.2,0.2-0.3C23.7,34.5,23.5,34.3,23.3,34.3z M23.3,34.8c-0.1,0-0.1-0.1-0.1-0.1c0-0.1,0.1-0.1,0.1-0.1
				c0.1,0,0.1,0.1,0.1,0.1C23.5,34.7,23.4,34.8,23.3,34.8z"/>
			<path class="st29" d="M21.6,34.5c0-0.1-0.2-0.2-0.3-0.2c-0.1,0-0.3,0.1-0.3,0.2h-0.5v0.2H21c0,0.1,0.1,0.2,0.2,0.2l0,0.4h0.2
				v-0.4c0.1,0,0.2-0.1,0.2-0.2h0.5v-0.2H21.6z M21.3,34.8c-0.1,0-0.1-0.1-0.1-0.1c0-0.1,0.1-0.1,0.1-0.1c0.1,0,0.1,0.1,0.1,0.1
				C21.5,34.7,21.4,34.8,21.3,34.8z"/>
			<path class="st29" d="M19.6,34.8C19.6,34.8,19.6,34.8,19.6,34.8l0.6-0.1v-0.2h-0.5c0-0.1-0.2-0.2-0.3-0.2c-0.2,0-0.3,0.1-0.3,0.3
				c0,0.1,0.1,0.2,0.2,0.3l0,0.7h0.2v-0.6c0,0,0,0,0,0l0.8,0.8l0.2-0.1L19.6,34.8z M19.3,34.8c-0.1,0-0.1-0.1-0.1-0.1
				c0-0.1,0.1-0.1,0.1-0.1c0.1,0,0.1,0.1,0.1,0.1C19.5,34.7,19.4,34.8,19.3,34.8z"/>
			<path class="st29" d="M19.6,36.7c0-0.1-0.1-0.2-0.2-0.2v-0.7h-0.2v0.7c-0.1,0-0.2,0.2-0.2,0.3c0,0.1,0.1,0.3,0.2,0.3v0.5l0.2,0
				v-0.5c0.1,0,0.2-0.1,0.2-0.2h0.5v-0.2H19.6z M19.3,37c-0.1,0-0.1-0.1-0.1-0.1c0-0.1,0.1-0.1,0.1-0.1c0.1,0,0.1,0.1,0.1,0.1
				C19.4,36.9,19.4,37,19.3,37z"/>
			<path class="st29" d="M19.9,38.9c0.1-0.1,0.1-0.2,0-0.3l0.5-0.6l-0.2-0.1l-0.5,0.6c-0.1,0-0.1,0-0.2,0c-0.1-0.2-0.1-0.3-0.1-0.5
				h-0.2c0,0.2,0.1,0.4,0.2,0.6l0,0c-0.1,0.1-0.1,0.3,0,0.4c0.1,0.1,0.2,0.1,0.3,0.1c0.1,0.1,0.3,0.3,0.5,0.4l0.1-0.2
				C20.1,39.2,20,39,19.9,38.9z M19.7,38.8c0,0.1-0.1,0.1-0.2,0c-0.1,0-0.1-0.1,0-0.2c0-0.1,0.1-0.1,0.2,0
				C19.8,38.7,19.8,38.8,19.7,38.8z"/>
			<path class="st29" d="M19.2,38.1l-0.2,0l0-0.5l0.2-0.1v0.3C19.2,37.9,19.2,38,19.2,38.1L19.2,38.1z"/>
			<path class="st29" d="M19.4,37.4l0.2,0c0,0,0,0.3,0,0.3c0-0.1,0,0.3,0,0.3l-0.2,0.1c0-0.1,0-0.2,0-0.3V37.4L19.4,37.4z"/>
			<polyline class="st29" points="19.2,35.4 19,35.5 19,36 19.2,36.1 19.2,35.4 			"/>
			<polyline class="st29" points="19.4,35.4 19.6,35.5 19.6,36 19.4,36.1 19.4,35.4 			"/>
			<polyline class="st29" points="20.7,34.7 20.6,34.9 20.1,34.9 20,34.7 20.7,34.7 			"/>
			<polyline class="st29" points="20.7,34.5 20.6,34.3 20.1,34.3 20,34.5 20.7,34.5 			"/>
			<path class="st29" d="M20.1,39.1c0.2,0.1,0.4,0.2,0.6,0.3l0-0.2c-0.2-0.1-0.4-0.1-0.5-0.2L20.1,39.1"/>
			<path class="st29" d="M20,39.3c0.2,0.1,0.4,0.2,0.6,0.3l-0.2,0.1c-0.2-0.1-0.3-0.1-0.5-0.3L20,39.3"/>
			<polyline class="st29" points="20.3,38.1 20.5,38.2 20.8,37.8 20.7,37.6 20.3,38.1 			"/>
			<polyline class="st29" points="20.1,38 20,37.8 20.4,37.4 20.6,37.5 20.1,38 			"/>
			<path class="st29" d="M23.4,38.1l0.2,0l0-0.5l-0.2-0.1v0.3C23.4,37.9,23.4,38,23.4,38.1L23.4,38.1z"/>
			<path class="st29" d="M23.2,37.4l-0.2,0c0,0,0,0.3,0,0.3c0-0.1,0,0.3,0,0.3l0.2,0.1c0-0.1,0-0.2,0-0.3V37.4"/>
			<path class="st29" d="M22.5,39.1c-0.2,0.1-0.4,0.2-0.6,0.3l0-0.2c0.2-0.1,0.4-0.1,0.5-0.2L22.5,39.1"/>
			<path class="st29" d="M22.6,39.3c-0.2,0.1-0.4,0.2-0.6,0.3l0.2,0.1c0.2-0.1,0.3-0.1,0.5-0.3L22.6,39.3"/>
			<polyline class="st29" points="23.2,35.4 23,35.5 23,36 23.2,36.1 23.2,35.4 			"/>
			<polyline class="st29" points="23.4,35.4 23.6,35.5 23.6,36 23.4,36.1 23.4,35.4 			"/>
			<polyline class="st29" points="22.4,38.1 22.2,38.2 21.8,37.8 21.9,37.6 22.4,38.1 			"/>
			<polyline class="st29" points="22.5,38 22.6,37.8 22.3,37.4 22.1,37.5 22.5,38 			"/>
			<polyline class="st29" points="20.2,35.5 20.4,35.4 20.8,35.8 20.7,36 20.2,35.5 			"/>
			<polyline class="st29" points="20.1,35.6 20,35.8 20.3,36.2 20.5,36.1 20.1,35.6 			"/>
			<polyline class="st29" points="22.4,35.5 22.2,35.4 21.8,35.8 21.9,36 22.4,35.5 			"/>
			<polyline class="st29" points="22.5,35.6 22.7,35.8 22.3,36.2 22.1,36.1 22.5,35.6 			"/>
			<polyline class="st29" points="20,36.7 20.1,36.5 20.6,36.5 20.7,36.7 20,36.7 			"/>
			<polyline class="st29" points="20,36.9 20.1,37.1 20.6,37.1 20.7,36.9 20,36.9 			"/>
			<polyline class="st29" points="22.6,36.7 22.6,36.5 22,36.5 22,36.7 22.6,36.7 			"/>
			<polyline class="st29" points="22.6,36.9 22.6,37.1 22,37.1 22,36.9 22.6,36.9 			"/>
			<polyline class="st29" points="21.4,38.7 21.6,38.6 21.6,38.1 21.4,38 21.4,38.7 			"/>
			<polyline class="st29" points="21.2,38.7 21,38.6 21,38.1 21.2,38 21.2,38.7 			"/>
			<path class="st29" d="M21.2,35.2L21,35.2v0.5l0.2,0.1V35.2 M21.4,35.2l0.2,0.1v0.5l-0.2,0.1V35.2"/>
			<polyline class="st29" points="22,34.7 22,34.9 22.6,34.9 22.6,34.7 22,34.7 			"/>
			<polyline class="st29" points="22,34.5 22,34.3 22.6,34.3 22.6,34.5 22,34.5 			"/>
			<path class="st31" d="M21,36.8c0-0.2,0.1-0.3,0.3-0.3c0.2,0,0.3,0.1,0.3,0.3c0,0.2-0.1,0.3-0.3,0.3C21.1,37.2,21,37,21,36.8"/>
			<path class="st45" d="M14.4,28.6h-0.1v-0.1h-0.2V29h0.2v0.3h-0.4v0.9h0.2v1.8h-0.4v0.9H17v-0.9h-0.4v-1.8h0.2v-0.9h-0.4V29h0.2
				v-0.4h-0.2v0.1h-0.1v-0.1h-0.2v0.1H16v-0.1h-0.2V29H16v0.3h-0.4v-1h0.2v-0.4h-0.2V28h-0.1v-0.1h-0.2V28h-0.1v-0.1h-0.2v0.4h0.2v1
				h-0.4V29h0.2v-0.4h-0.2v0.1h-0.1v-0.1h-0.2V28.6L14.4,28.6z M13.6,32.8H17 M13.6,32.6H17 M13.6,32.4H17 M13.6,32.2H17 M13.6,31.9
				H17 M14.1,31.7h2.5 M14.1,31.5h2.5 M14.1,31.3h2.5 M14.1,31h2.5 M14.1,30.8h2.5 M14.1,30.6h2.5 M14.1,30.4h2.5 M13.9,30.2h3
				 M13.9,29.9h3 M13.9,29.7h3 M13.9,29.5h3 M14.3,29.3h2.1 M15.1,29.1h0.4 M15.1,28.8h0.4 M15.1,28.6h0.4 M15.1,28.4h0.4
				 M14.9,28.1h0.9 M14.3,29.1h0.4 M14.1,28.8h0.8 M14.1,32.8v-0.2 M14.1,32.4v-0.2 M13.9,32.4v0.2 M14.3,32.6v-0.2 M14.5,32.8v-0.2
				 M14.5,32.4v-0.2 M14.5,31.9v-0.2 M14.5,31.5v-0.2 M14.3,32.2v-0.2 M13.9,32.2v-0.2 M14.7,31.9v0.2 M14.9,31.9v-0.2 M14.3,31.5
				v0.2 M14.7,31.5v0.2 M15.1,31.5v0.2 M14.9,31.5v-0.2 M15.1,31v0.2 M15.1,30.6v0.2 M14.9,30.4v0.2 M15.1,30.2v0.2 M14.7,30.2v0.2
				 M14.3,30.2v0.2 M14.1,29.9v0.2 M14.5,29.9v0.2 M14.9,29.9v0.2 M15.1,29.7v0.2 M14.7,29.7v0.2 M14.3,29.7v0.2 M14.1,29.5v0.2
				 M14.9,29.5v0.2 M14.5,29.1v0.2 M16.4,29.1H16 M16.6,28.8h-0.8 M16.6,32.8v-0.2 M16.6,32.4v-0.2 M16.8,32.4v0.2 M16.4,32.6v-0.2
				 M16.2,32.8v-0.2 M16.2,32.4v-0.2 M16.2,31.9v-0.2 M16.2,31.5v-0.2 M16.4,32.2v-0.2 M16.8,32.2v-0.2 M16,31.9v0.2 M15.8,31.9
				v-0.2 M16.4,31.5v0.2 M16,31.5v0.2 M15.6,31.5v0.2 M15.8,31.5v-0.2 M15.6,31v0.2 M15.6,30.6v0.2 M15.8,30.4v0.2 M15.6,30.2v0.2
				 M16,30.2v0.2 M16.4,30.2v0.2 M16.6,29.9v0.2 M16.2,29.9v0.2 M15.8,29.9v0.2 M15.6,29.7v0.2 M16,29.7v0.2 M16.4,29.7v0.2
				 M16.6,29.5v0.2 M15.8,29.5v0.2 M16.2,29.1v0.2 M15.3,31.5v-0.2 M15.3,30.6v-0.2 M15.3,31v-0.2 M15.3,30.2v-0.2 M15.3,29.7v-0.2
				 M15.3,29.1v-0.2 M15.3,28.6v-0.2 M14.3,29h0.4 M15.1,28.3h0.4 M16,29h0.4"/>
			<path class="st45" d="M15.9,32.8v-0.6c0-0.1-0.1-0.4-0.6-0.4c-0.5,0-0.6,0.3-0.6,0.4v0.6H15.9z"/>
			<path class="st45" d="M15,32.3l-0.3,0c0-0.1,0-0.3,0.1-0.3l0.2,0.2C15,32.2,15,32.2,15,32.3z"/>
			<path class="st45" d="M15.7,32.3l0.3,0c0-0.1,0-0.3-0.1-0.3l-0.2,0.2C15.7,32.2,15.7,32.2,15.7,32.3z"/>
			<path class="st45" d="M15.4,32l0.1-0.2c-0.1,0-0.2-0.1-0.2-0.1c-0.1,0-0.2,0-0.2,0.1l0.1,0.2H15.4L15.4,32z"/>
			<path class="st45" d="M14.9,31.3v-0.6c0-0.2-0.1-0.3-0.3-0.3c-0.2,0-0.3,0.1-0.3,0.3v0.6H14.9L14.9,31.3z"/>
			<path class="st45" d="M15.8,31.3v-0.6c0-0.2,0.1-0.3,0.3-0.3c0.2,0,0.3,0.1,0.3,0.3v0.6H15.8z"/>
			<path class="st45" d="M15.6,29.8l0.1-0.6h-0.5l0,0.6H15.6z"/>
			<path class="st45" d="M16,29.8l-0.1-0.6h0.6l-0.1,0.6H16L16,29.8z"/>
			<path class="st45" d="M14.7,29.8l0-0.6h-0.5l0.1,0.6H14.7z"/>
			<path class="st46" d="M15.7,32.8v-0.5c0-0.1-0.1-0.3-0.4-0.3C15,32,15,32.3,15,32.3v0.5H15.7L15.7,32.8z"/>
			<path class="st46" d="M14.9,31.3v-0.5c0-0.1-0.1-0.3-0.2-0.3c-0.2,0-0.2,0.1-0.2,0.3v0.5H14.9z"/>
			<path class="st46" d="M15.8,31.3v-0.5c0-0.1,0.1-0.3,0.2-0.3c0.2,0,0.2,0.1,0.2,0.3v0.5H15.8z"/>
			<path class="st3" d="M16.4,33.7c0-1.2,0.9-2.2,1.9-2.2s1.9,1,1.9,2.2c0,1.2-0.9,2.2-1.9,2.2C17.3,35.9,16.4,35,16.4,33.7"/>
			<path class="st6" d="M17,33.7c0-0.9,0.6-1.6,1.4-1.6c0.8,0,1.4,0.7,1.4,1.6c0,0.9-0.6,1.6-1.4,1.6C17.6,35.3,17,34.6,17,33.7"/>
			<path class="st4" d="M18,33.2c-0.1,0-0.1,0-0.2,0.1c0,0,0.1-0.1,0.1-0.3c0-0.2-0.2-0.3-0.2-0.3s-0.2,0.2-0.2,0.3
				c0,0.2,0.1,0.3,0.1,0.3c0-0.1-0.1-0.1-0.2-0.1c-0.1,0-0.2,0.1-0.2,0.2c0,0,0,0.1,0,0.1l0.1,0.1c0,0,0.1-0.1,0.1-0.1
				c0.1,0,0.1,0.1,0.1,0.1c0,0,0,0.2,0,0.2l-0.1,0.2l0.1,0l0.1,0.1l0.1-0.1l0.1,0l-0.1-0.2c0,0,0-0.1,0-0.2c0-0.1,0.1-0.1,0.1-0.1
				c0,0,0.1,0,0.1,0.1l0.1-0.1c0,0,0-0.1,0-0.1C18.1,33.2,18.1,33.2,18,33.2z"/>
			<path class="st4" d="M17.4,33.8H18v-0.1h-0.5V33.8z"/>
			<path class="st4" d="M19.2,33.2c-0.1,0-0.1,0-0.2,0.1c0,0,0.1-0.1,0.1-0.3c0-0.2-0.2-0.3-0.2-0.3s-0.2,0.2-0.2,0.3
				c0,0.2,0.1,0.3,0.1,0.3c0-0.1-0.1-0.1-0.2-0.1c-0.1,0-0.2,0.1-0.2,0.2c0,0,0,0.1,0,0.1l0.1,0.1c0,0,0.1-0.1,0.1-0.1
				c0.1,0,0.1,0.1,0.1,0.1c0,0,0,0.2,0,0.2l-0.1,0.2l0.1,0L19,34l0.1-0.1l0.1,0l-0.1-0.2c0,0,0-0.1,0-0.2c0-0.1,0.1-0.1,0.1-0.1
				c0.1,0,0.1,0,0.1,0.1c0,0,0.1-0.2,0.1-0.2C19.4,33.2,19.3,33.2,19.2,33.2z"/>
			<path class="st4" d="M18.7,33.8h0.5v-0.1h-0.5V33.8z"/>
			<path class="st4" d="M18.6,34.3c-0.1,0-0.1,0-0.2,0.1c0,0,0.1-0.1,0.1-0.3c0-0.2-0.2-0.3-0.2-0.3s-0.2,0.2-0.2,0.3
				c0,0.2,0.1,0.3,0.1,0.3c0-0.1-0.1-0.1-0.2-0.1c-0.1,0-0.2,0.1-0.2,0.2c0,0,0.1,0.2,0.1,0.2c0,0,0.1-0.1,0.1-0.1
				c0.1,0,0.1,0.1,0.1,0.1c0,0,0,0.2,0,0.2L18.1,35l0.1,0l0.1,0.1l0.1-0.1l0.1,0l-0.1-0.2c0,0,0-0.1,0-0.2c0-0.1,0.1-0.1,0.1-0.1
				c0.1,0,0.1,0,0.1,0.1c0,0,0.1-0.2,0.1-0.2C18.8,34.3,18.7,34.3,18.6,34.3z"/>
			<path class="st4" d="M18.1,34.8h0.5v-0.1h-0.5V34.8z"/>
			<path class="st3" d="M19.3,28.9c0,0-0.1,0-0.1,0.1c0,0.1,0,0.2,0,0.2s0.1-0.1,0.1-0.1c0.1,0,0.1,0,0.1,0S19.4,29,19.3,28.9
				C19.4,28.9,19.3,28.9,19.3,28.9"/>
			<g>
				<path class="st3" d="M21.4,28.7L21.4,28.7l0-0.1c0,0-0.2,0-0.3,0c-0.1,0-0.2-0.1-0.3-0.1c-0.1-0.1-0.1-0.1-0.2-0.1
					c-0.2,0-0.3,0-0.3,0s0.1,0,0.2,0.2c0.1,0.1,0.2,0.2,0.2,0.2c0.1,0,0.3,0,0.4,0C21.2,28.7,21.4,28.7,21.4,28.7"/>
				<path class="st47" d="M23.6,28c-0.2,0.2-0.3,0.2-0.4,0.4c0-0.1,0-0.3-0.1-0.4c0,0.3-0.3,0.6-0.2,1c0,0,0,0,0,0
					c0,0.1-0.1,0.3-0.1,0.4c0,0.1,0,0.3,0.1,0.6c0.1,0.2,0.2,0.7-0.2,0.8c-0.4,0.1-0.5-0.2-0.7-0.4c-0.2-0.3-0.2-0.5-0.3-0.7
					c0,0,0.1,0.1,0.1,0.1c0,0,0.1,0.1,0.1,0.1s0-0.2,0-0.3c0-0.1-0.1-0.2-0.1-0.2s0.2,0.1,0.2,0.2c0,0,0-0.2-0.1-0.4
					c0.1,0,0.3,0.2,0.3,0.2s0-0.1,0-0.2c0-0.1-0.1-0.1-0.1-0.2c0,0-0.1-0.1-0.1-0.1c0,0,0-0.1,0-0.1s0,0,0.1,0.1
					c0,0,0.1,0.1,0.1,0.1s0-0.1,0-0.1c0,0,0-0.1,0-0.1c0,0,0-0.1,0-0.2c0-0.1,0-0.2,0-0.2s-0.1-0.2-0.3-0.3
					c-0.2-0.1-0.4-0.2-0.4-0.2s-0.1,0-0.2,0c0,0,0,0.1-0.1,0.1c0,0-0.1,0-0.2,0c-0.1,0-0.1,0-0.2,0c0,0,0,0,0,0.1
					c0,0.1,0.1,0.1,0.2,0.1c0.1,0,0.1,0.1,0.1,0.2c0,0.1-0.2,0.1-0.2,0.1c-0.1,0-0.1,0-0.2,0.1c0,0,0.1,0.1,0.2,0.2
					c0,0.1-0.1,0.1-0.1,0.1c-0.1,0-0.2,0-0.3,0c-0.1,0-0.1,0-0.1,0s-0.1,0-0.1,0c0,0-0.2-0.1-0.3-0.2C20.1,29,20,29,20,28.9
					c-0.1,0-0.1-0.1-0.1-0.2c0-0.1,0-0.1,0-0.2c0,0,0.1-0.1,0.1-0.1c0,0-0.1,0-0.1,0c-0.1,0-0.1,0-0.1-0.1c0,0,0,0.1,0,0.1
					c0,0,0,0.1,0,0.1c0,0-0.1-0.1-0.1-0.1c0,0-0.1,0.1-0.1,0.1c0,0-0.1,0-0.1,0.1c0,0,0,0.1,0.1,0.1c0,0,0.1,0.1,0.1,0.1
					c0,0-0.1,0-0.2,0c0,0,0,0.1,0,0.1c0,0,0,0,0,0.1c0,0.1,0,0.1,0.1,0.1c0,0,0.1,0,0.1,0c0,0,0.1,0,0.1,0.1c0,0,0,0.1,0.1,0.1
					c0,0,0.1,0.1,0.1,0.1s-0.1,0-0.1,0c-0.1,0-0.2,0.1-0.2,0.1s0.3,0,0.4,0.1c0,0-0.2,0.1-0.2,0.1c0.3,0.2,0.4,0,0.7,0.4
					c0,0-0.2,0.1-0.2,0.1c0,0-0.1,0.1-0.2,0.1c0,0-0.2,0.1-0.3,0c-0.1,0-0.1-0.1-0.1-0.1c-0.1,0-0.1,0-0.1,0.1c0,0,0,0-0.1,0.1
					c0,0,0,0.1,0.1,0.1c0.1,0,0.1,0,0.1,0.1c0,0-0.1,0-0.1,0c0,0,0,0,0,0.1c0,0,0,0.1,0,0.1c0,0.1,0.1,0,0.1,0c0,0,0.1,0,0.1,0
					c0,0,0,0.1-0.1,0.1c0,0,0,0.1,0,0.1s0,0,0.1,0c0,0,0.1,0,0.1,0s0,0,0.1-0.1c0,0,0-0.1,0-0.2c0-0.1,0.1-0.1,0.2-0.1
					c0.1,0,0.1-0.1,0.1-0.1c0,0.1,0,0.2,0,0.2c0.2-0.1,0.2-0.2,0.3-0.3c0,0.1,0,0.2,0,0.2c0.1-0.2,0.4-0.3,0.4-0.3s0,0.1,0.1,0.2
					c0,0.1,0.2,0.2,0.2,0.3c0.1,0.1,0.4,0.2,0.4,0.2s-0.2,0-0.2,0c-0.1,0-0.2,0-0.3,0c-0.2,0-0.2,0.2-0.3,0.2c0,0,0,0.2,0,0.2
					c0,0.1,0.1,0.2,0.1,0.2s0-0.1,0-0.1c0,0,0.1-0.1,0.1-0.1s0,0.1,0,0.1c0,0,0,0.1,0,0.1c0,0.1,0,0.1,0,0.1s0-0.1,0-0.1
					c0,0,0.1-0.1,0.1-0.1s0,0.1,0,0.1c0,0,0,0.1,0,0.1c0,0,0,0.1-0.2,0.1c-0.1,0-0.2,0-0.2-0.1s0-0.1-0.1-0.2c0,0-0.1,0.1-0.1,0.1
					c0,0,0,0-0.1,0.1c-0.1,0,0,0.1,0,0.1c0,0,0,0.1,0,0.1c0,0-0.1,0-0.2,0c-0.1,0,0,0.1,0,0.1c0,0.1,0,0.1,0.1,0.1c0,0,0.1,0,0.1,0
					c0,0,0.1,0,0.1,0c0,0,0,0,0,0.1c0,0,0,0,0,0.1c0,0.1,0.1,0,0.1,0.1c0,0,0.1,0,0.1,0c0,0,0.1,0,0.1-0.1c0,0,0-0.1,0.1-0.1
					c0,0,0.1,0,0.1,0c0,0,0.1,0,0.2,0c0.1,0,0.1,0,0.2,0c0,0,0.1,0,0.1,0c0,0,0.1-0.1,0.1-0.1c0,0,0-0.1-0.1-0.3
					c0-0.2-0.1-0.3,0-0.3c0-0.1,0.1,0,0.2,0c0,0,0.1,0,0.2,0c-0.1,0.1-0.1,0.5,0.3,0.7c-0.1-0.1,0-0.3,0-0.3l0.2,0.3v-0.3
					c0,0,0.1,0.2,0.2,0.2c0,0.1,0.1,0.1,0,0.2c0,0-0.1,0.1-0.1,0.1c-0.1,0-0.1-0.1-0.2,0c-0.1,0,0,0.1,0,0.1c0,0,0,0.1,0,0.1
					c0,0,0.1,0.1,0.1,0c0,0,0.1,0,0.1,0c0,0,0,0-0.1,0.1c0,0-0.1,0.1-0.1,0.1c0,0,0.1,0,0.1,0.1c0,0,0.1,0.1,0.1,0.1
					c0,0,0-0.1,0-0.1c0,0,0-0.1,0-0.1c0,0,0,0,0,0.1c0,0.1,0,0.1,0,0.1c0,0,0.1,0,0.1-0.1c0,0,0.1,0,0.1,0c0.1,0,0-0.1,0-0.1
					c0,0,0-0.1,0-0.2c0,0,0.1-0.2,0.1-0.3c0-0.1,0.1-0.2,0.1-0.2c0,0,0-0.1,0-0.1c0,0,0,0-0.1-0.1c0,0-0.1,0-0.2-0.1
					c-0.1-0.1-0.1-0.1-0.1-0.3c0-0.2,0.1-0.3,0.2-0.3c0.1,0,0.3,0,0.4-0.1c0.2-0.2,0.2-0.5,0.2-0.6c0-0.1-0.2-0.6-0.2-0.7
					c0-0.1-0.1-0.5,0.1-0.6c0.3-0.2,0.1-0.3,0.5-0.6c-0.1,0-0.2,0-0.3,0C23.4,28.4,23.5,28.4,23.6,28z"/>
				<path class="st32" d="M21.6,28.2C21.6,28.2,21.6,28.2,21.6,28.2C21.6,28.3,21.6,28.3,21.6,28.2C21.6,28.3,21.7,28.3,21.6,28.2
					c0.1,0.1,0.2,0.1,0.2,0.1C21.8,28.3,21.7,28.2,21.6,28.2C21.6,28.2,21.5,28.2,21.6,28.2L21.6,28.2L21.6,28.2z"/>
				<path class="st32" d="M21.1,28.4C21.1,28.4,21,28.3,21.1,28.4c0-0.1,0-0.1,0-0.1S21.1,28.3,21.1,28.4
					C21.1,28.3,21.1,28.3,21.1,28.4C21.1,28.4,21.1,28.4,21.1,28.4"/>
				<path class="st3" d="M19.7,28.4c0,0,0.1,0,0.1,0c0,0,0.1,0,0.1,0c0,0,0-0.1,0-0.1c0-0.1-0.2-0.2-0.2-0.2s0,0.1,0,0.1
					C19.8,28.3,19.7,28.4,19.7,28.4"/>
				<path class="st3" d="M19.4,28.5c0,0-0.1-0.1-0.2-0.1c-0.1,0-0.2,0.1-0.2,0.1s0.1,0,0.2,0c0,0,0.1,0.1,0.1,0.1
					S19.4,28.6,19.4,28.5C19.4,28.5,19.4,28.5,19.4,28.5"/>
				<path class="st48" d="M21.1,28.9L21.1,28.9L21.1,28.9L21.1,28.9"/>
				<path class="st48" d="M21.2,28.8L21.2,28.8L21.2,28.8L21.2,28.8"/>
				<path class="st48" d="M21.1,28.5L21.1,28.5L21.1,28.5L21.1,28.5"/>
				<path class="st48" d="M21.2,28.5L21.2,28.5L21.2,28.5L21.2,28.5"/>
				<path class="st3" d="M19.6,30.1c0,0-0.1-0.1-0.1,0c-0.1,0-0.1,0.1-0.1,0.1s0.1,0,0.1,0c0,0,0.1,0.1,0.1,0.1S19.6,30.2,19.6,30.1
					C19.6,30.1,19.6,30.1,19.6,30.1"/>
				<path class="st3" d="M19.5,30.4c0,0-0.1,0-0.1,0c-0.1,0.1-0.1,0.1-0.1,0.1s0.1-0.1,0.1,0c0,0,0.1,0,0.1,0S19.5,30.5,19.5,30.4
					C19.6,30.5,19.5,30.4,19.5,30.4"/>
				<path class="st3" d="M19.7,30.8c0,0,0,0.1,0,0.2c0,0.1,0.1,0.1,0.1,0.1s0-0.1,0-0.1c0,0,0-0.1,0-0.1S19.8,30.8,19.7,30.8
					C19.7,30.8,19.7,30.8,19.7,30.8"/>
				<path class="st3" d="M20.6,31.6c0,0-0.1-0.1-0.1-0.1c-0.1,0-0.2,0.1-0.2,0.1s0.1,0,0.1,0c0,0,0.1,0.1,0.1,0.1
					S20.5,31.7,20.6,31.6C20.5,31.7,20.6,31.6,20.6,31.6"/>
				<path class="st3" d="M20.3,31.9c0,0-0.1,0-0.2,0c-0.1,0.1-0.1,0.2-0.1,0.2s0.1-0.1,0.1-0.1c0.1,0,0.1,0,0.1,0S20.3,32,20.3,31.9
					C20.3,32,20.3,31.9,20.3,31.9"/>
				<path class="st3" d="M20.6,32.3c0,0-0.1,0.1,0,0.1c0,0.1,0.1,0.1,0.1,0.1s0,0,0-0.1c0,0,0.1-0.1,0.1-0.1L20.6,32.3"/>
				<path class="st3" d="M22,32.4c0,0-0.1,0-0.2,0c-0.1,0-0.1,0.2-0.1,0.2s0.1-0.1,0.2-0.1c0.1,0,0.1,0,0.1,0S22.1,32.5,22,32.4
					C22,32.5,22,32.4,22,32.4"/>
				<path class="st3" d="M22.1,32.8c0,0-0.1,0.1,0,0.1c0,0.1,0.1,0.1,0.1,0.1s0-0.1,0-0.1c0,0,0.1,0,0.1,0S22.2,32.8,22.1,32.8
					C22.2,32.8,22.1,32.8,22.1,32.8"/>
				<path class="st3" d="M22.5,32.9c0,0,0,0.1,0,0.2c0.1,0.1,0.1,0.1,0.1,0.1s-0.1-0.1,0-0.1c0-0.1,0.1-0.1,0.1-0.1
					S22.6,32.9,22.5,32.9C22.5,32.9,22.5,32.9,22.5,32.9"/>
				<path class="st49" d="M22.4,28.3C22.4,28.3,22.5,28.3,22.4,28.3C22.5,28.3,22.4,28.3,22.4,28.3c0,0,0-0.1,0-0.1l0,0v0l0,0
					c0,0,0,0,0,0c0,0-0.1,0-0.1,0c0,0,0,0,0-0.1c0,0,0,0-0.1,0c0,0,0-0.1,0-0.1c0,0,0,0,0,0l0,0l0,0l0,0c0,0,0,0,0,0
					c0,0-0.1,0-0.1,0c0,0,0,0,0,0c0,0,0,0-0.1,0c0,0,0-0.1,0-0.1c0,0,0,0,0,0l0,0l0,0l0,0c0,0-0.1,0-0.1,0c0,0,0,0,0,0c0,0,0,0,0,0
					c-0.1,0-0.1-0.1-0.1-0.2l0,0c0,0,0,0.1,0,0.2c0,0.1,0,0.1,0,0.1c0.1,0,0.2,0.1,0.4,0.2c0.1,0.1,0.2,0.2,0.3,0.3
					c0,0,0.1,0,0.1-0.1c0.1,0,0.2,0,0.2,0l0,0C22.6,28.4,22.4,28.4,22.4,28.3z"/>
				<path class="st32" d="M22,28C22,28,22,28,22,28C22,28.1,22,28.1,22,28C22,28.1,22,28.1,22,28C22,28.1,22,28.1,22,28"/>
				<path class="st32" d="M22.1,28.1L22.1,28.1C22,28.1,22,28.1,22.1,28.1C22,28.1,22,28.1,22.1,28.1L22.1,28.1L22.1,28.1
					C22.1,28.2,22.1,28.2,22.1,28.1C22.1,28.2,22.1,28.2,22.1,28.1L22.1,28.1"/>
				<path class="st32" d="M21.9,28L21.9,28C21.8,28,21.8,28,21.9,28C21.8,28,21.8,28,21.9,28L21.9,28L21.9,28
					C21.9,28,21.9,28,21.9,28C21.9,28,21.9,28,21.9,28L21.9,28"/>
				<path class="st32" d="M21.7,27.9C21.8,27.9,21.8,27.9,21.7,27.9C21.8,27.9,21.8,27.9,21.7,27.9C21.8,27.9,21.8,27.9,21.7,27.9
					C21.7,27.9,21.7,27.9,21.7,27.9"/>
				<path class="st32" d="M22.2,28.2C22.2,28.2,22.2,28.2,22.2,28.2C22.2,28.2,22.2,28.2,22.2,28.2C22.2,28.2,22.2,28.2,22.2,28.2
					C22.2,28.2,22.2,28.2,22.2,28.2"/>
				<path class="st32" d="M22.3,28.3L22.3,28.3C22.3,28.3,22.3,28.3,22.3,28.3C22.3,28.3,22.3,28.3,22.3,28.3L22.3,28.3L22.3,28.3
					C22.3,28.3,22.3,28.3,22.3,28.3C22.2,28.3,22.2,28.3,22.3,28.3L22.3,28.3"/>
				<path class="st32" d="M22.4,28.4C22.4,28.4,22.4,28.4,22.4,28.4C22.4,28.4,22.4,28.4,22.4,28.4C22.3,28.4,22.3,28.4,22.4,28.4
					C22.4,28.4,22.4,28.4,22.4,28.4"/>
				<polygon class="st29" points="22.1,27.7 22,27.7 22,27.8 22,27.8 22,27.8 22.1,27.7 				"/>
				<polygon class="st29" points="22,27.8 21.9,27.7 21.9,27.7 21.9,27.8 22,27.8 22,27.8 				"/>
				<polygon class="st29" points="22,27.8 22,27.8 22,27.8 22,27.9 22.1,27.9 22.1,27.8 				"/>
				<g>
					<g>
						<polygon class="st28" points="22,27.9 22,27.8 22,27.9 						"/>
						<path class="st32" d="M22,27.8C22,27.8,22,27.8,22,27.8C22,27.8,22,27.8,22,27.8C22,27.8,22,27.8,22,27.8
							C22,27.8,22,27.8,22,27.8C21.9,27.8,21.9,27.8,22,27.8C22,27.8,22,27.8,22,27.8 M22,27.7C22,27.7,21.9,27.7,22,27.7
							c-0.1,0.1-0.1,0.1,0,0.1c0,0,0,0,0,0C22,27.9,22,27.9,22,27.7C22,27.8,22,27.8,22,27.7C22,27.8,22,27.8,22,27.7
							C22,27.7,22,27.7,22,27.7L22,27.7z"/>
					</g>
				</g>
				<path class="st29" d="M21.7,27.6c-0.1,0-0.1,0-0.1,0C21.6,27.5,21.7,27.6,21.7,27.6c0,0.1,0,0.1,0,0.1c0,0,0,0,0,0
					S21.8,27.6,21.7,27.6z"/>
				<polygon class="st29" points="21.8,27.7 21.7,27.7 21.7,27.7 21.7,27.7 21.8,27.8 21.8,27.7 				"/>
				<g>
					<g>
						<path class="st28" d="M21.7,27.7L21.7,27.7L21.7,27.7z"/>
						<path class="st32" d="M21.7,27.6C21.7,27.6,21.7,27.6,21.7,27.6C21.7,27.7,21.7,27.7,21.7,27.6C21.7,27.7,21.7,27.7,21.7,27.6
							C21.7,27.7,21.7,27.7,21.7,27.6C21.7,27.7,21.7,27.7,21.7,27.6C21.7,27.7,21.7,27.6,21.7,27.6 M21.7,27.6
							C21.7,27.6,21.7,27.6,21.7,27.6C21.6,27.7,21.6,27.7,21.7,27.6c0,0.1,0,0.1,0,0.1l0,0l0,0C21.7,27.7,21.7,27.7,21.7,27.6
							C21.8,27.7,21.8,27.6,21.7,27.6L21.7,27.6L21.7,27.6L21.7,27.6z"/>
					</g>
				</g>
				<polygon class="st29" points="22.3,27.8 22.3,27.8 22.2,27.9 22.2,28 22.3,28 22.3,27.9 				"/>
				<polygon class="st29" points="22.2,27.9 22.1,27.9 22.1,27.9 22.2,28 22.2,28 22.2,28 				"/>
				<polygon class="st29" points="22.2,27.9 22.2,28 22.2,28 22.3,28.1 22.3,28 22.3,28 				"/>
				<g>
					<g>
						<polygon class="st28" points="22.2,28 22.3,27.9 22.2,28 						"/>
						<path class="st32" d="M22.2,27.9C22.2,27.9,22.2,27.9,22.2,27.9C22.3,27.9,22.3,28,22.2,27.9C22.3,28,22.2,28,22.2,27.9
							C22.2,28,22.2,28,22.2,27.9C22.2,28,22.2,28,22.2,27.9C22.2,27.9,22.2,27.9,22.2,27.9 M22.2,27.9
							C22.2,27.9,22.2,27.9,22.2,27.9C22.2,27.9,22.2,27.9,22.2,27.9c-0.1,0.1-0.1,0.1,0,0.1c0,0,0,0,0,0c0,0,0,0,0,0
							C22.3,28,22.3,28,22.2,27.9C22.3,27.9,22.3,27.9,22.2,27.9C22.3,27.9,22.2,27.9,22.2,27.9L22.2,27.9z"/>
					</g>
				</g>
				<polygon class="st29" points="22.6,28.1 22.5,28.1 22.5,28.1 22.5,28.2 22.5,28.2 22.6,28.1 				"/>
				<polygon class="st29" points="22.5,28.2 22.4,28.2 22.4,28.2 22.5,28.3 22.5,28.3 22.6,28.2 				"/>
				<polygon class="st29" points="22.4,28.1 22.4,28.1 22.3,28.1 22.4,28.2 22.5,28.2 22.5,28.2 				"/>
				<g>
					<g>
						<polygon class="st28" points="22.4,28.2 22.4,28.2 22.5,28.1 22.5,28.2 						"/>
						<path class="st32" d="M22.5,28.1C22.5,28.1,22.5,28.1,22.5,28.1C22.5,28.2,22.5,28.2,22.5,28.1C22.5,28.2,22.5,28.2,22.5,28.1
							C22.4,28.2,22.4,28.2,22.5,28.1C22.4,28.2,22.4,28.2,22.5,28.1C22.4,28.1,22.4,28.1,22.5,28.1 M22.5,28.1
							C22.4,28.1,22.4,28.1,22.5,28.1c-0.1,0-0.1,0.1-0.1,0.1c0,0,0,0,0,0s0,0,0,0C22.5,28.2,22.5,28.2,22.5,28.1
							C22.5,28.2,22.5,28.1,22.5,28.1C22.5,28.1,22.5,28.1,22.5,28.1L22.5,28.1z"/>
					</g>
				</g>
				<path class="st29" d="M22.8,28.4c0,0-0.1,0-0.1,0s0,0,0,0C22.6,28.4,22.7,28.4,22.8,28.4C22.8,28.4,22.8,28.4,22.8,28.4
					C22.8,28.4,22.8,28.4,22.8,28.4z"/>
				<polygon class="st29" points="22.6,28.3 22.6,28.3 22.5,28.4 22.6,28.4 22.6,28.4 22.7,28.4 				"/>
				<g>
					<g>
						<polygon class="st28" points="22.6,28.4 22.6,28.4 22.6,28.4 22.7,28.4 22.6,28.4 						"/>
						<path class="st32" d="M22.6,28.4C22.7,28.4,22.7,28.4,22.6,28.4C22.7,28.4,22.7,28.4,22.6,28.4C22.6,28.4,22.6,28.4,22.6,28.4
							C22.6,28.4,22.6,28.4,22.6,28.4C22.6,28.4,22.6,28.4,22.6,28.4C22.6,28.4,22.6,28.4,22.6,28.4 M22.6,28.3
							C22.6,28.3,22.6,28.3,22.6,28.3C22.6,28.4,22.6,28.4,22.6,28.3C22.6,28.4,22.6,28.4,22.6,28.3c-0.1,0.1,0,0.1,0,0.1
							c0,0,0,0,0,0C22.7,28.4,22.7,28.4,22.6,28.3C22.7,28.4,22.7,28.4,22.6,28.3C22.7,28.4,22.7,28.3,22.6,28.3L22.6,28.3z"/>
					</g>
				</g>
				<path class="st40" d="M20.6,29.2c0,0-0.1,0-0.1,0.1c0,0.1,0,0.1,0,0.1s0.1-0.1,0.2,0c0.1,0,0.1,0,0.2,0c0,0,0.2,0,0.2,0
					s-0.1,0.1-0.1,0.2c0,0.1,0,0.1,0,0.1c0,0.1-0.1,0.2-0.1,0.2s0.1,0,0.1-0.1c0.1,0,0.2-0.1,0.2-0.1c0,0,0.1-0.1,0.1-0.1
					s0,0.1,0,0.2c0,0.1,0,0.2,0,0.2s0.1,0,0.1-0.1c0,0,0.1-0.1,0.2-0.2c0,0.2,0.1,0.4,0.1,0.4s0-0.1,0.1-0.1c0,0,0.1-0.2,0.1-0.2
					l0,0.1 M20.4,29.9c0.1-0.1,0.3-0.3,0.4-0.3 M20.9,30.2c0,0,0.1-0.1,0.2-0.1c0.1,0,0.1-0.1,0.1-0.1"/>
				<path class="st40" d="M21.7,30.9c0,0,0.2,0.1,0.2,0.3c0,0.1-0.1,0.3-0.1,0.3"/>
			</g>
		</g>
	</g>
</g>
</svg>
